<svg width="25" height="25" viewBox="0 0 25 25" fill="none" xmlns="http://www.w3.org/2000/svg">
<path fill-rule="evenodd" clip-rule="evenodd" d="M7.5513 11.8439C5.9513 9.59729 6.54637 6.79118 8.38475 5.31867C10.2092 3.8573 12.8713 3.91262 14.6572 5.59714C16.2736 7.1217 16.5532 9.77512 15.3052 11.6562C14.0411 13.5613 11.011 14.6261 8.5056 12.8195C8.26404 13.0647 8.01702 13.3098 7.77884 13.5632C7.73914 13.6055 7.71878 13.6859 7.72303 13.7462C7.75276 14.1605 7.60154 14.504 7.31619 14.7905C6.17757 15.9342 5.03367 17.0726 3.89549 18.2167C3.1469 18.9692 2.06033 18.6236 1.79588 17.7583C1.64827 17.2755 1.78011 16.8542 2.12337 16.5078C3.2699 15.3507 4.42474 14.2018 5.57859 13.0519C5.86595 12.7655 6.20975 12.6186 6.62396 12.6482C6.68914 12.653 6.77561 12.6226 6.82244 12.5775C7.06761 12.3416 7.30315 12.0957 7.5513 11.8439ZM11.3583 12.3871C13.2828 12.3609 14.7665 10.8585 14.7355 8.96731C14.7049 7.09982 13.1915 5.60163 11.3673 5.63293C9.45428 5.66574 7.95911 7.16472 7.97972 9.02893C8.00027 10.894 9.52752 12.412 11.3583 12.3871Z" fill="white"/>
<path fill-rule="evenodd" clip-rule="evenodd" d="M20.6414 2.73608C21.244 2.73608 21.8235 2.73608 22.4179 2.73608C22.4179 8.55239 22.4179 14.3533 22.4179 20.171C21.8259 20.171 21.2403 20.171 20.6414 20.171C20.6414 14.3609 20.6414 8.56011 20.6414 2.73608Z" fill="white"/>
<path fill-rule="evenodd" clip-rule="evenodd" d="M16.8943 20.1705C16.8901 20.0882 16.8823 20.007 16.8824 19.9259C16.8835 16.851 16.885 13.7761 16.8889 10.7012C16.889 10.5659 16.901 10.4279 16.9291 10.2957C17.0904 9.53823 17.0695 8.78608 16.9687 8.01791C16.8806 7.34677 16.9066 6.66059 16.8839 5.981C16.8796 5.85424 16.8833 5.72724 16.8833 5.58188C17.497 5.58188 18.0822 5.58188 18.679 5.58188C18.679 10.4464 18.679 15.299 18.679 20.1705C18.0872 20.1705 17.5016 20.1705 16.8943 20.1705Z" fill="white"/>
<path fill-rule="evenodd" clip-rule="evenodd" d="M24.1236 21.5566C16.3746 21.5566 8.63452 21.5566 0.876221 21.5566C0.876221 21.292 0.876221 21.0308 0.876221 20.7514C8.61304 20.7514 16.3586 20.7514 24.1236 20.7514C24.1236 21.007 24.1236 21.2675 24.1236 21.5566Z" fill="white"/>
<path fill-rule="evenodd" clip-rule="evenodd" d="M14.7659 20.1776C14.1672 20.1776 13.5942 20.1776 12.9975 20.1776C12.991 20.0972 12.98 20.0254 12.98 19.9536C12.979 18.2284 12.9814 16.5032 12.9758 14.778C12.9753 14.615 13.0338 14.5557 13.1808 14.4888C13.6531 14.2739 14.1117 14.0289 14.5749 13.794C14.6329 13.7647 14.6864 13.7263 14.7659 13.6774C14.7659 15.8581 14.7659 18.0088 14.7659 20.1776Z" fill="white"/>
<path fill-rule="evenodd" clip-rule="evenodd" d="M8.93164 14.5407C9.28047 14.5644 9.61753 14.5777 9.95215 14.6136C10.1461 14.6344 10.3344 14.7088 10.5283 14.7274C10.6854 14.7424 10.7272 14.7999 10.7267 14.9517C10.7223 16.5032 10.7246 18.0546 10.7249 19.606C10.725 19.787 10.7249 19.968 10.7249 20.1687C10.1243 20.1687 9.53813 20.1687 8.93164 20.1687C8.93164 18.3158 8.93164 16.4589 8.93164 14.5407Z" fill="white"/>
<path fill-rule="evenodd" clip-rule="evenodd" d="M6.58772 20.1748C5.99724 20.1748 5.41799 20.1748 4.80525 20.1748C4.80525 19.7124 4.80159 19.2608 4.80989 18.8094C4.81091 18.753 4.86677 18.6889 4.91204 18.6431C5.30046 18.2495 5.68142 17.8473 6.09055 17.4763C6.19939 17.3775 6.39778 17.3775 6.58772 17.3228C6.58772 18.3102 6.58772 19.2356 6.58772 20.1748Z" fill="white"/>
</svg>
