<svg width="25" height="25" viewBox="0 0 25 25" fill="none" xmlns="http://www.w3.org/2000/svg">
<path d="M21.3089 17.5235C21.5398 17.9428 21.3741 18.281 21.093 18.5552C20.8673 18.7753 20.8205 18.9826 20.9122 19.2759C21.0102 19.5894 21.0085 19.9192 20.9088 20.2394C20.7805 20.6518 20.4988 20.9073 20.0854 21.0168C19.648 21.1326 19.2019 21.1193 18.7558 21.0909C18.5658 21.0788 18.3758 21.0657 18.1866 21.0454C17.1738 20.9365 16.5532 21.721 16.5092 22.5654C16.5035 22.6752 16.5117 22.7858 16.5161 22.8958C16.5259 23.1459 16.3894 23.2956 16.1398 23.2977C15.8292 23.3005 15.5185 23.2981 15.2079 23.2981C12.6074 23.2981 10.007 23.2991 7.40655 23.2946C7.29805 23.2944 7.17247 23.268 7.08511 23.2089C6.942 23.1123 6.95787 22.958 6.99889 22.8008C7.18082 22.1039 7.38692 21.4112 7.52462 20.7053C7.69757 19.8184 7.6692 18.9212 7.52183 18.0284C7.50284 17.9135 7.4356 17.902 7.34908 17.8847C5.07833 17.4316 3.2878 16.2459 2.01934 14.3128C-0.752726 10.0884 0.988436 4.34947 5.63936 2.37418C7.74742 1.47887 9.87447 1.48595 12.0007 2.33961C12.1147 2.38541 12.2535 2.40089 12.3763 2.388C13.7433 2.24454 15.0993 2.27794 16.4316 2.64669C18.292 3.16173 19.831 4.1526 20.9174 5.77306C21.718 6.96705 22.0832 8.29122 21.9818 9.73185C21.947 10.2257 21.8112 10.6997 21.6003 11.1463C21.3737 11.6263 21.3947 12.0665 21.6754 12.528C22.0079 13.0748 22.302 13.6459 22.5917 14.2171C22.6965 14.4237 22.7611 14.6572 22.8081 14.8857C22.8906 15.2878 22.7413 15.5418 22.3597 15.6882C22.1823 15.7563 22.0004 15.8141 21.8167 15.8622C21.7265 15.8858 21.69 15.9254 21.6941 16.0153C21.7038 16.2254 21.6906 16.4388 21.7225 16.6452C21.7818 17.0289 21.6902 17.331 21.3089 17.5235ZM7.77789 22.6289C7.85953 22.6289 7.92877 22.6289 7.99801 22.6289C9.41607 22.6289 10.8341 22.6289 12.2522 22.6289C13.3846 22.6289 14.517 22.6254 15.6495 22.6328C15.8046 22.6338 15.8466 22.5849 15.8498 22.4404C15.8526 22.3116 15.8793 22.1816 15.9091 22.0555C16.1671 20.9647 17.0843 20.2936 18.1999 20.3757C18.4447 20.3937 18.6895 20.4261 18.9343 20.4254C19.2436 20.4244 19.555 20.4144 19.8611 20.3747C20.1402 20.3385 20.2841 20.1651 20.2955 19.8814C20.3022 19.7137 20.2888 19.5385 20.2459 19.377C20.1221 18.9115 20.1563 18.5034 20.5474 18.1605C20.7759 17.96 20.76 17.9419 20.6383 17.6713C20.6177 17.6256 20.5949 17.5807 20.5782 17.5337C20.5195 17.3699 20.5633 17.2267 20.7058 17.1244C20.7911 17.063 20.8774 17.0016 20.9686 16.9498C21.0447 16.9063 21.0606 16.8522 21.058 16.7664C21.0466 16.3913 21.0374 16.0158 21.044 15.6407C21.048 15.4128 21.146 15.3263 21.3662 15.2736C21.5995 15.2178 21.8294 15.148 22.061 15.085C22.1455 15.0621 22.1757 15.0143 22.1434 14.9292C22.0814 14.7656 22.0385 14.5924 21.9574 14.4391C21.6598 13.8772 21.3628 13.3144 21.0412 12.7662C20.7046 12.1926 20.6587 11.6029 20.9344 11.0119C21.4033 10.0072 21.4256 8.98097 21.1519 7.93126C20.7148 6.25543 19.6882 5.02398 18.232 4.13692C16.7414 3.22887 15.0999 2.92599 13.3754 2.99278C13.3508 2.99376 13.3266 3.00523 13.3248 3.00572C16.3293 5.26129 17.5836 8.19464 16.7404 11.9106C16.3856 13.4746 15.5514 14.7938 14.3644 15.8726C12.6216 17.4563 10.5566 18.1436 8.21344 18.0093C8.213 18.1002 7.79884 22.4961 7.77789 22.6289ZM1.36505 9.8588C1.36383 13.9719 4.71524 17.3467 8.80528 17.3509C12.9782 17.3552 16.3283 14.0236 16.3346 9.86344C16.3408 5.75025 12.9706 2.37945 8.85362 2.38092C4.73287 2.38243 1.36632 5.74415 1.36505 9.8588Z" fill="white"/>
<path d="M15.8026 23.3723C15.7034 23.3723 15.6042 23.372 15.505 23.3718C15.406 23.3715 15.3069 23.3713 15.2079 23.3713L12.7196 23.3713C11.0266 23.3713 9.2112 23.3709 7.40642 23.3678C7.27019 23.3676 7.13474 23.3308 7.04407 23.2695C6.83733 23.1299 6.89856 22.8951 6.928 22.7822C6.97536 22.6007 7.02444 22.4195 7.07346 22.2382C7.21008 21.7332 7.35134 21.2109 7.45276 20.6912C7.61106 19.8794 7.61003 19.0123 7.44958 18.0402C7.43948 17.9792 7.42326 17.9741 7.33894 17.9573C5.03513 17.4977 3.22619 16.2853 1.95818 14.353C0.625462 12.322 0.267161 9.81715 0.97512 7.48068C1.68352 5.14293 3.37312 3.25709 5.61076 2.30675C6.67165 1.85621 7.75754 1.62775 8.83825 1.62775C9.89065 1.62775 10.9638 1.8444 12.028 2.27164C12.1256 2.3109 12.2541 2.32716 12.3687 2.3152C12.8768 2.26188 13.348 2.23595 13.8093 2.23595C14.76 2.23595 15.6241 2.34723 16.4511 2.57614C18.4156 3.11998 19.9387 4.18185 20.9783 5.73229C21.7941 6.94899 22.1563 8.2964 22.0549 9.73702C22.0209 10.2192 21.8902 10.7039 21.6665 11.1776C21.4498 11.6365 21.4725 12.0536 21.738 12.49C22.0716 13.0386 22.3631 13.6043 22.657 14.1839C22.7506 14.3685 22.8214 14.5868 22.8798 14.871C22.9689 15.3052 22.8074 15.5948 22.3859 15.7566C22.2102 15.824 22.025 15.8834 21.8353 15.933C21.7679 15.9507 21.7652 15.9671 21.7673 16.0119C21.7706 16.0839 21.7713 16.1569 21.7719 16.2275C21.7733 16.3688 21.7745 16.5023 21.7949 16.634C21.8609 17.0603 21.7338 17.3619 21.4065 17.5538C21.5765 17.9175 21.4885 18.2718 21.1442 18.6076C20.9407 18.806 20.8969 18.9812 20.9822 19.254C21.0839 19.5791 21.0827 19.9274 20.9789 20.261C20.845 20.6913 20.5507 20.9693 20.1042 21.0876C19.8566 21.1531 19.5913 21.1837 19.2695 21.1837C19.0859 21.1837 18.9045 21.1737 18.7512 21.1639C18.5686 21.1523 18.3739 21.1392 18.1788 21.1182C18.1188 21.1117 18.0588 21.1085 18.0006 21.1085C17.1195 21.1085 16.6202 21.8433 16.5824 22.5692C16.5781 22.6515 16.582 22.7336 16.5861 22.8205C16.5872 22.8446 16.5884 22.8688 16.5893 22.8928C16.595 23.0379 16.5557 23.1588 16.4758 23.2428C16.3971 23.3253 16.2812 23.3696 16.1405 23.3709C16.0279 23.3719 15.9152 23.3723 15.8026 23.3723ZM15.2079 23.2248C15.3071 23.2248 15.4062 23.2251 15.5054 23.2254C15.7167 23.2258 15.928 23.2264 16.1391 23.2245C16.2407 23.2235 16.3183 23.1958 16.3698 23.1419C16.4217 23.0873 16.447 23.0032 16.4429 22.8987C16.442 22.875 16.4408 22.8513 16.4398 22.8275C16.4357 22.7409 16.4315 22.6512 16.4361 22.5617C16.4776 21.7668 17.0282 20.9621 18.0006 20.9621C18.064 20.9621 18.1293 20.9656 18.1945 20.9727C18.3867 20.9933 18.5795 21.0063 18.7606 21.0178C18.9115 21.0275 19.0901 21.0373 19.2695 21.0373C19.5783 21.0373 19.8317 21.0083 20.0668 20.9461C20.4613 20.8416 20.7211 20.5965 20.839 20.2177C20.934 19.9126 20.9351 19.5944 20.8424 19.2978C20.7416 18.9754 20.8012 18.7376 21.0419 18.5028C21.3627 18.19 21.4272 17.89 21.2448 17.5589L21.2082 17.4924L21.276 17.4583C21.5956 17.2969 21.711 17.0497 21.6502 16.6566C21.6282 16.5144 21.6268 16.3692 21.6255 16.229C21.6249 16.1597 21.6242 16.0881 21.621 16.0188C21.6136 15.8587 21.7186 15.8123 21.7982 15.7914C21.9827 15.7431 22.1629 15.6854 22.3335 15.6199C22.6865 15.4845 22.8107 15.2627 22.7364 14.9005C22.6807 14.6295 22.614 14.4229 22.5264 14.2504C22.2338 13.6734 21.9437 13.1103 21.6129 12.5662C21.3196 12.0838 21.2945 11.6228 21.5342 11.1152C21.7501 10.658 21.8761 10.1908 21.9089 9.72682C22.0079 8.31945 21.6539 7.00299 20.8567 5.81398C19.8373 4.29347 18.3419 3.25162 16.4121 2.71744C15.5981 2.4921 14.7468 2.38258 13.8093 2.38258C13.3532 2.38258 12.887 2.40826 12.3841 2.461C12.2463 2.4755 12.0927 2.45563 11.9735 2.40773C10.9267 1.98751 9.87195 1.77438 8.8383 1.77438C7.77732 1.77438 6.71072 1.99894 5.66809 2.44171C3.47053 3.37506 1.81111 5.22721 1.11535 7.5233C0.419993 9.81808 0.771849 12.2781 2.08069 14.2727C3.32634 16.171 5.10373 17.3621 7.3635 17.813C7.45657 17.8315 7.56721 17.8535 7.59416 18.0166C7.75749 19.0061 7.75827 19.8902 7.59656 20.7194C7.49421 21.2442 7.35222 21.7691 7.21492 22.2766C7.16599 22.4574 7.11706 22.6382 7.0698 22.8193C7.02278 22.9996 7.03806 23.0888 7.12615 23.1483C7.19265 23.1932 7.30012 23.2213 7.40671 23.2214C9.2114 23.2245 11.0267 23.225 12.7196 23.225L15.2079 23.2248ZM15.6544 22.7061H15.6491C15.1521 22.7028 14.6181 22.7013 13.9175 22.7013C13.64 22.7013 13.3625 22.7015 13.0849 22.7018C12.8073 22.702 12.5298 22.7022 12.2523 22.7022H7.69226L7.70564 22.6176C7.72654 22.4849 8.13694 18.1342 8.14035 18.0084L8.14241 17.933L8.21775 17.9362C8.40647 17.947 8.59573 17.9525 8.7803 17.9525C10.8947 17.9525 12.7569 17.2345 14.3152 15.8184C15.5386 14.7066 16.3306 13.3863 16.6691 11.8944C17.4779 8.33019 16.3379 5.35934 13.2809 3.06437L13.1619 2.97501L13.3012 2.93629C13.3137 2.93126 13.3412 2.92091 13.3725 2.91964C15.2768 2.84586 16.8721 3.22281 18.2701 4.07443C19.8096 5.01222 20.803 6.30362 21.2228 7.91285C21.5216 9.0587 21.449 10.0826 21.0009 11.0429C20.7405 11.601 20.7753 12.1683 21.1044 12.7293C21.4169 13.2619 21.7106 13.8167 21.9947 14.3531L22.0221 14.4049C22.079 14.5125 22.1177 14.6285 22.1552 14.7406C22.1732 14.7945 22.1918 14.8502 22.2119 14.9033C22.2349 14.9639 22.2351 15.0172 22.2125 15.0616C22.1895 15.1066 22.145 15.1382 22.0802 15.1559C22.0039 15.1766 21.9278 15.1981 21.8515 15.2196C21.6988 15.2628 21.5408 15.3074 21.3832 15.345C21.1801 15.3936 21.1204 15.4602 21.1173 15.6422C21.1104 16.0297 21.1209 16.4246 21.1312 16.7642C21.134 16.8547 21.1205 16.9474 21.0049 17.0134C20.9133 17.0655 20.8219 17.1312 20.7485 17.1839C20.6336 17.2665 20.5994 17.3759 20.6471 17.509C20.6584 17.5405 20.6728 17.5715 20.6881 17.6043L20.7136 17.6603C20.8411 17.9435 20.8431 17.9984 20.5957 18.2156C20.2689 18.5022 20.1828 18.8546 20.3166 19.3582C20.3582 19.5144 20.3761 19.6964 20.3686 19.8843C20.3557 20.2074 20.1788 20.4074 19.8705 20.4473C19.5311 20.4913 19.192 20.4978 18.9344 20.4986H18.9257C18.7546 20.4986 18.5822 20.4829 18.4156 20.4677C18.3418 20.4609 18.2681 20.4542 18.1944 20.4488C18.1351 20.4444 18.0754 20.4422 18.0169 20.4422C17.014 20.4422 16.2146 21.082 15.9803 22.0724C15.9521 22.1917 15.9256 22.319 15.923 22.442C15.9189 22.6296 15.8411 22.7061 15.6544 22.7061ZM13.9175 22.5548C14.6183 22.5548 15.1527 22.5563 15.65 22.5596C15.65 22.5596 15.6501 22.5596 15.6502 22.5596C15.7616 22.5596 15.7742 22.5471 15.7766 22.4388C15.7796 22.3023 15.8078 22.1658 15.8379 22.0386C16.0884 20.9798 16.9437 20.2958 18.017 20.2958C18.0791 20.2958 18.1424 20.2981 18.2052 20.3027C18.2798 20.3082 18.3544 20.3151 18.4289 20.3218C18.5924 20.3368 18.7614 20.3522 18.9258 20.3522H18.9341C19.1874 20.3514 19.5205 20.345 19.8517 20.3022C20.0909 20.2711 20.2122 20.1325 20.2223 19.8785C20.2293 19.705 20.213 19.5381 20.1751 19.3959C20.0272 18.8391 20.1301 18.4291 20.4991 18.1054C20.6815 17.9455 20.6815 17.9455 20.5801 17.7204L20.5553 17.6662C20.5393 17.6318 20.5227 17.5961 20.5093 17.5583C20.4389 17.362 20.4935 17.1867 20.6631 17.065C20.7393 17.0103 20.8341 16.9421 20.9324 16.8862C20.9737 16.8627 20.9871 16.8423 20.9849 16.7687C20.9744 16.4274 20.9639 16.0304 20.9708 15.6396C20.9759 15.3507 21.1257 15.256 21.3492 15.2025C21.5039 15.1655 21.6604 15.1213 21.8118 15.0786C21.8885 15.057 21.9651 15.0354 22.0419 15.0145C22.0707 15.0067 22.0806 14.9978 22.0821 14.9951C22.0833 14.9925 22.0846 14.9805 22.075 14.9553C22.0538 14.8995 22.0347 14.8423 22.0163 14.787C21.9791 14.6756 21.944 14.5704 21.8927 14.4736L21.8653 14.4217C21.582 13.8867 21.289 13.3334 20.9781 12.8034C20.6232 12.1985 20.5862 11.5854 20.8681 10.9811C21.3013 10.0529 21.371 9.06144 21.0811 7.94991C20.6712 6.37872 19.6999 5.11696 18.194 4.19967C16.9321 3.43097 15.5041 3.05729 13.8282 3.05729C13.7265 3.05729 13.6229 3.0587 13.5187 3.06149C14.9678 4.18278 15.9852 5.46803 16.5437 6.88375C17.1387 8.39215 17.229 10.0889 16.8119 11.9269C16.4667 13.4487 15.6597 14.7945 14.4137 15.9269C12.8276 17.3683 10.9322 18.099 8.78025 18.099C8.61633 18.099 8.4487 18.0948 8.28103 18.0863C8.23484 18.6399 7.92077 21.9714 7.85974 22.5558H12.2522C12.5297 22.5558 12.8072 22.5555 13.0847 22.5553C13.3624 22.555 13.64 22.5548 13.9175 22.5548ZM8.81379 17.4241C8.81355 17.4241 8.81365 17.4241 8.8134 17.4241H8.80525C6.80749 17.4221 4.92302 16.6313 3.499 15.1973C2.07507 13.7635 1.29123 11.8676 1.29182 9.8588C1.29309 5.69664 4.68533 2.30924 8.85364 2.30768H8.85632C10.8678 2.30768 12.764 3.09728 14.1956 4.53097C15.6252 5.96276 16.4109 7.85655 16.4079 9.86354C16.4048 11.8939 15.616 13.7956 14.1868 15.2183C12.7579 16.6407 10.8496 17.4241 8.81379 17.4241ZM8.85637 2.38092L8.85373 2.45416C4.76614 2.45568 1.43962 5.7774 1.43835 9.85885C1.43713 13.9454 4.74201 17.2735 8.80539 17.2776H8.8134C12.914 17.2779 16.2552 13.9518 16.2614 9.86334C16.2644 7.89552 15.4939 6.03854 14.092 4.63453C12.6881 3.22853 10.8287 2.45421 8.85632 2.45421V2.38092H8.85637Z" fill="white"/>
<path d="M9.87515 4.82961C9.81318 4.96677 9.91948 5.02522 10.0367 5.09216C10.8454 5.55437 11.6523 6.0197 12.4572 6.4885C12.5437 6.53879 12.5988 6.53494 12.6824 6.47849C13.165 6.15266 13.8259 6.30315 14.1249 6.79929C14.4293 7.30447 14.252 7.96204 13.7278 8.23167C13.6169 8.2887 13.5828 8.35096 13.5835 8.47014C13.5881 9.41204 13.5871 10.354 13.5847 11.2959C13.5844 11.39 13.6015 11.4499 13.6989 11.4941C14.1364 11.693 14.3671 12.2083 14.2379 12.6759C14.1057 13.1542 13.6445 13.4854 13.1592 13.4209C12.9867 13.398 12.8246 13.3016 12.6553 13.2469C12.6027 13.2298 12.5283 13.2165 12.4862 13.2406C11.6424 13.722 10.8026 14.2106 9.95957 14.6933C9.88017 14.7389 9.8667 14.7888 9.87109 14.873C9.90356 15.4907 9.44434 15.9727 8.83501 15.9664C8.24058 15.9604 7.79331 15.4679 7.83281 14.8552C7.83828 14.7707 7.81255 14.7315 7.74253 14.6913C6.9084 14.2132 6.07524 13.7332 5.24477 13.2487C5.15664 13.1973 5.10156 13.207 5.01919 13.2609C4.52309 13.5859 3.86186 13.428 3.56924 12.9217C3.27095 12.4056 3.46558 11.7563 4.00503 11.4883C4.08843 11.4469 4.12261 11.404 4.12226 11.3092C4.1189 10.3472 4.11929 9.38528 4.12183 8.42327C4.12207 8.33723 4.09507 8.29334 4.01523 8.25345C3.46328 7.97747 3.26953 7.33836 3.57212 6.81199C3.86562 6.30144 4.52847 6.15188 5.03447 6.48757C5.10879 6.53689 5.16035 6.5364 5.23472 6.49324C6.06631 6.01057 6.89917 5.5301 7.73379 5.05256C7.81465 5.00627 7.83916 4.95867 7.83188 4.8635C7.78677 4.27444 8.23794 3.78674 8.83804 3.76623C9.40478 3.74675 9.87974 4.22273 9.87515 4.82961ZM5.48364 12.4365C5.40469 12.5872 5.53208 12.6416 5.64956 12.7092C6.44844 13.1681 7.24697 13.6275 8.04253 14.0921C8.13642 14.1469 8.19902 14.1536 8.29419 14.0897C8.59985 13.8846 8.95049 13.8315 9.26084 14.0184C9.5022 14.1638 9.65469 14.1012 9.85781 13.9808C10.6111 13.534 11.373 13.1014 12.1314 12.6633C12.1908 12.629 12.2462 12.6053 12.2357 12.5076C12.1877 12.0604 12.4019 11.6818 12.8118 11.4808C12.8855 11.4447 12.9125 11.4067 12.9124 11.3238C12.9095 10.357 12.9101 9.39017 12.9129 8.42342C12.9132 8.33772 12.8882 8.293 12.8071 8.25393C12.4158 8.0657 12.1933 7.68079 12.2297 7.2534C12.2376 7.16174 12.2096 7.11858 12.1356 7.07615C11.306 6.60051 10.4769 6.1238 9.65054 5.64236C9.56011 5.58967 9.50034 5.59109 9.41074 5.64788C9.04741 5.878 8.67046 5.88245 8.30703 5.65432C8.19741 5.58557 8.12764 5.59568 8.02705 5.65432C7.22231 6.12317 6.41587 6.58909 5.60683 7.05037C5.50747 7.10706 5.46948 7.16253 5.47436 7.2825C5.49204 7.71917 5.29922 8.04666 4.9105 8.24573C4.81426 8.295 4.78564 8.34646 4.78603 8.44895C4.7897 9.39075 4.79067 10.3325 4.7852 11.2742C4.78452 11.3929 4.82402 11.4464 4.92749 11.4996C5.29463 11.6887 5.46763 12.0041 5.48364 12.4365ZM4.80962 7.3262C4.80591 7.13518 4.6415 6.97454 4.45181 6.97659C4.26406 6.97864 4.10024 7.14671 4.10239 7.33508C4.10459 7.52429 4.271 7.6864 4.46059 7.68401C4.65083 7.68157 4.81328 7.51507 4.80962 7.3262ZM4.45747 12.7565C4.65078 12.7558 4.8104 12.5961 4.80957 12.4041C4.80879 12.2134 4.64575 12.0521 4.45483 12.0531C4.26543 12.0541 4.10034 12.2198 4.102 12.407C4.10376 12.5992 4.26445 12.7574 4.45747 12.7565ZM13.5989 12.4063C13.5981 12.213 13.4388 12.053 13.2471 12.0534C13.0539 12.0537 12.8961 12.2122 12.8961 12.4059C12.8962 12.6078 13.0559 12.7603 13.2629 12.7561C13.4476 12.7524 13.5997 12.5943 13.5989 12.4063ZM8.50351 14.9474C8.50449 15.1369 8.65708 15.2938 8.8438 15.2974C9.03491 15.301 9.20171 15.1396 9.2043 14.9486C9.20688 14.7577 9.04111 14.589 8.85288 14.5908C8.65703 14.5927 8.50244 14.7504 8.50351 14.9474ZM8.85107 4.44197C8.65439 4.44265 8.49927 4.60071 8.50215 4.79758C8.50493 4.98923 8.65537 5.14021 8.84609 5.14275C9.0416 5.14538 9.20229 4.98943 9.20464 4.7948C9.20693 4.60217 9.0457 4.44133 8.85107 4.44197ZM13.599 7.32644C13.5974 7.13572 13.4332 6.97405 13.2437 6.97678C13.0525 6.97957 12.8955 7.14163 12.8971 7.33445C12.8986 7.52698 13.0612 7.68733 13.2519 7.6844C13.4431 7.68147 13.6006 7.51907 13.599 7.32644Z" fill="white"/>
<path d="M8.84672 16.0396L8.83427 16.0396C8.53114 16.0365 8.25317 15.9151 8.05141 15.6977C7.84262 15.4727 7.73901 15.1718 7.75971 14.8504C7.76318 14.7971 7.75512 14.7828 7.7061 14.7547C6.72856 14.1944 5.93476 13.7359 5.20786 13.3118C5.17124 13.2905 5.15195 13.288 5.14072 13.288C5.12016 13.288 5.0958 13.2982 5.05932 13.322C4.87807 13.4408 4.66875 13.5035 4.45405 13.5035C4.06357 13.5036 3.70024 13.2946 3.50581 12.9582C3.35132 12.6909 3.31465 12.3833 3.40249 12.0919C3.49077 11.799 3.69316 11.5613 3.97241 11.4226C4.03559 11.3912 4.04922 11.3711 4.04897 11.3093C4.0459 10.4244 4.04575 9.48029 4.04853 8.42292C4.04868 8.36452 4.03696 8.34606 3.98242 8.31882C3.69609 8.17565 3.48989 7.93581 3.40181 7.64348C3.31479 7.35475 3.35273 7.04645 3.50859 6.77536C3.70327 6.43669 4.05405 6.23454 4.44697 6.23454C4.66855 6.23454 4.88569 6.3009 5.0749 6.42644C5.10913 6.44914 5.1268 6.45178 5.13716 6.45178C5.15273 6.45178 5.17202 6.44479 5.19785 6.4298C6.08081 5.91735 6.89838 5.44606 7.69731 4.98893C7.75356 4.95671 7.76391 4.93654 7.75873 4.86901C7.73578 4.5696 7.83188 4.28322 8.02924 4.06271C8.233 3.83508 8.51933 3.70373 8.83539 3.69294C9.12905 3.68264 9.40854 3.79567 9.61889 4.00759C9.83363 4.22394 9.95058 4.51608 9.94823 4.83019L9.94813 4.84567L9.94174 4.85978C9.91273 4.92399 9.93051 4.94728 10.0683 5.026L10.0728 5.02858C10.8892 5.49514 11.7037 5.96501 12.4939 6.42521C12.5235 6.44245 12.5458 6.45046 12.5639 6.45046C12.5774 6.45046 12.5984 6.44675 12.6412 6.41784C12.8209 6.2966 13.0304 6.23249 13.2473 6.23249C13.6306 6.23249 13.9909 6.43518 14.1875 6.76149C14.3451 7.02302 14.3879 7.34035 14.3051 7.6322C14.2225 7.92282 14.0294 8.15886 13.7612 8.29685C13.6776 8.33986 13.6561 8.37541 13.6566 8.46979C13.6615 9.47058 13.6599 10.4601 13.6578 11.2962C13.6576 11.3775 13.6702 11.4008 13.729 11.4275C14.1999 11.6415 14.4489 12.1866 14.3084 12.6954C14.177 13.1705 13.7542 13.5022 13.2802 13.5022C13.2366 13.5022 13.1927 13.4992 13.1494 13.4935C13.0301 13.4777 12.9182 13.4307 12.8099 13.3853C12.7489 13.3597 12.6913 13.3355 12.6325 13.3165C12.6015 13.3064 12.5703 13.3007 12.5468 13.3007C12.5286 13.3007 12.5224 13.3041 12.5224 13.3041C12.0602 13.5678 11.5914 13.8382 11.1382 14.0996C10.7576 14.3191 10.377 14.5385 9.99579 14.7568C9.94877 14.7838 9.94057 14.8016 9.94408 14.8692C9.96083 15.1877 9.85526 15.4842 9.64687 15.7038C9.44159 15.9203 9.15736 16.0396 8.84672 16.0396ZM5.14072 13.1415C5.18569 13.1415 5.23047 13.1554 5.28174 13.1853C6.00825 13.6092 6.80175 14.0675 7.779 14.6277C7.87621 14.6835 7.91298 14.7507 7.90595 14.8598C7.88784 15.1407 7.97763 15.4029 8.15883 15.5981C8.3329 15.7857 8.57333 15.8904 8.83578 15.8931L8.84677 15.8931C9.11684 15.8931 9.36332 15.7901 9.54081 15.603C9.72128 15.4128 9.81259 15.1549 9.79799 14.8768C9.79267 14.7746 9.8119 14.6935 9.92318 14.6297C10.3043 14.4114 10.6848 14.1921 11.0652 13.9727C11.5186 13.7112 11.9875 13.4407 12.4499 13.1769C12.4763 13.1618 12.5089 13.1541 12.5471 13.1541C12.5992 13.1541 12.6514 13.1685 12.6779 13.1771C12.7425 13.198 12.8057 13.2245 12.8668 13.2502C12.9708 13.2938 13.069 13.335 13.1689 13.3483C13.2058 13.3532 13.2433 13.3556 13.2804 13.3556C13.6823 13.3556 14.0553 13.0615 14.1674 12.6564C14.2869 12.2236 14.0679 11.7423 13.6686 11.5608C13.53 11.4978 13.5112 11.3962 13.5115 11.2957C13.5136 10.4599 13.5151 9.47072 13.5103 8.47048C13.5094 8.32033 13.561 8.23513 13.6943 8.16652C13.9261 8.04728 14.093 7.84328 14.1643 7.59211C14.2362 7.33918 14.199 7.06398 14.0622 6.83708C13.8919 6.55446 13.5797 6.37893 13.2474 6.37893C13.0598 6.37893 12.8786 6.43435 12.7234 6.53918C12.6121 6.61437 12.5332 6.6175 12.4204 6.55178C11.6306 6.09177 10.8163 5.62209 10.0003 5.15573L9.99584 5.15319C9.88241 5.0884 9.72816 5.00036 9.80194 4.81472C9.80043 4.54543 9.69887 4.29592 9.51508 4.11076C9.33359 3.9279 9.09252 3.83019 8.84057 3.83933C8.56479 3.84875 8.31542 3.96276 8.13857 4.16042C7.96806 4.3509 7.8851 4.59855 7.90497 4.85783C7.9144 4.98107 7.87538 5.05588 7.77026 5.11608C6.97153 5.57307 6.15419 6.04426 5.27153 6.55651C5.22246 6.58498 5.17978 6.59826 5.13725 6.59826C5.09067 6.59826 5.04516 6.58244 4.99399 6.54851C4.82881 6.43894 4.63969 6.38102 4.44702 6.38102C4.10718 6.38102 3.80386 6.55573 3.63564 6.84836C3.5001 7.08415 3.46684 7.35153 3.54209 7.60119C3.61841 7.85451 3.79809 8.06286 4.048 8.18776C4.15278 8.24016 4.19541 8.30837 4.19507 8.42331C4.19223 9.48034 4.19238 10.4242 4.19551 11.3088C4.19595 11.4268 4.15019 11.4978 4.03764 11.5538C3.79497 11.6743 3.61924 11.8804 3.54277 12.1342C3.4667 12.3864 3.49868 12.653 3.63266 12.8849C3.80102 13.1762 4.11577 13.3571 4.45405 13.3571C4.64018 13.3571 4.82173 13.3027 4.97905 13.1995C5.0229 13.1708 5.07636 13.1415 5.14072 13.1415ZM8.84999 15.3707L8.84237 15.3706C8.61625 15.3663 8.43139 15.1766 8.43022 14.9478C8.42895 14.7089 8.61425 14.5198 8.85214 14.5175H8.85585C8.96366 14.5175 9.07148 14.5641 9.15165 14.6454C9.2331 14.728 9.279 14.8388 9.27748 14.9495C9.27441 15.1779 9.07865 15.3707 8.84999 15.3707ZM8.85585 14.5907L8.85356 14.664C8.69745 14.6655 8.57582 14.7898 8.5767 14.947C8.57748 15.097 8.69789 15.2213 8.84516 15.2241C8.84516 15.2241 8.84521 15.2241 8.84526 15.2241C8.99775 15.2241 9.12905 15.0949 9.131 14.9476C9.13197 14.8758 9.10151 14.8031 9.04735 14.7483C8.99452 14.6947 8.9247 14.664 8.85585 14.664V14.5907ZM8.16996 14.2087C8.10517 14.2087 8.04804 14.1801 8.00551 14.1553C7.20654 13.6886 6.41787 13.235 5.61298 12.7727L5.58501 12.7569C5.48647 12.7015 5.32363 12.61 5.40957 12.4211C5.38994 12.0134 5.22114 11.7333 4.8938 11.5648C4.76201 11.4969 4.71094 11.4153 4.71177 11.2738C4.7166 10.4434 4.71684 9.54582 4.7126 8.44929C4.71206 8.31672 4.75815 8.24138 4.8769 8.18058C5.24111 7.99406 5.41748 7.69289 5.40097 7.28552C5.39521 7.14338 5.44267 7.05964 5.57036 6.98679C6.32734 6.55519 7.11879 6.09865 7.98998 5.59108C8.05947 5.55056 8.11293 5.53327 8.16865 5.53327C8.22524 5.53327 8.28154 5.55202 8.34575 5.59226C8.68207 5.80339 9.03173 5.80109 9.37133 5.58601C9.48739 5.51242 9.56957 5.51057 9.6872 5.57907C10.5479 6.08059 11.4262 6.58513 12.1718 7.01257C12.2746 7.07155 12.3125 7.14309 12.3025 7.25964C12.2686 7.65681 12.474 8.01252 12.8386 8.18791C12.9436 8.23845 12.9863 8.30671 12.986 8.4236C12.9829 9.4611 12.9828 10.4096 12.9855 11.3236C12.9856 11.4326 12.9446 11.4972 12.8439 11.5466C12.4588 11.7353 12.2636 12.0827 12.3084 12.4997C12.3233 12.6383 12.2369 12.6874 12.1797 12.7199L12.1679 12.7266C11.9531 12.8507 11.7381 12.9743 11.523 13.098C10.9879 13.4056 10.4346 13.7237 9.89501 14.0437C9.78222 14.1106 9.66059 14.1759 9.5225 14.1759C9.4268 14.1759 9.3288 14.1449 9.22289 14.0812C9.10771 14.0118 8.9831 13.9766 8.85253 13.9766C8.68334 13.9766 8.50434 14.0367 8.33481 14.1505C8.27587 14.1902 8.22343 14.2087 8.16996 14.2087ZM8.16874 5.67971C8.14076 5.67971 8.10937 5.69103 8.06386 5.71755C7.19223 6.22536 6.40043 6.6821 5.64306 7.11398C5.56269 7.15978 5.54394 7.1923 5.54746 7.27951C5.56621 7.74235 5.35747 8.09904 4.9438 8.31091C4.87392 8.34665 4.85888 8.37111 4.85923 8.44865C4.86347 9.54567 4.86323 10.4437 4.8584 11.2746C4.85791 11.3614 4.87705 11.3913 4.96098 11.4345C5.33901 11.6291 5.5395 11.9653 5.55683 12.4338L5.55756 12.4532L5.54853 12.4704C5.51548 12.5336 5.52085 12.5526 5.65688 12.6291L5.68608 12.6456C6.49121 13.1082 7.28007 13.562 8.07949 14.0288C8.11899 14.0519 8.14692 14.0622 8.17001 14.0622C8.18451 14.0622 8.20893 14.0588 8.25336 14.0289C8.44711 13.8988 8.65434 13.8301 8.85273 13.8301C9.01029 13.8301 9.16034 13.8724 9.29867 13.9557C9.38222 14.006 9.45341 14.0295 9.5227 14.0295C9.61425 14.0295 9.70121 13.9885 9.8205 13.9178C10.3609 13.5972 10.9147 13.2789 11.4502 12.971C11.6652 12.8474 11.8802 12.7238 12.0949 12.5998L12.1076 12.5925C12.1608 12.5623 12.1674 12.5569 12.163 12.5154C12.112 12.0407 12.3425 11.6294 12.7796 11.4151C12.8304 11.3902 12.8393 11.3765 12.8392 11.3239C12.8365 10.4098 12.8367 9.46096 12.8397 8.42321C12.8399 8.36315 12.829 8.34577 12.7754 8.31994C12.3546 8.1175 12.1176 7.70646 12.1568 7.24719C12.1619 7.18815 12.1522 7.17009 12.0993 7.13972C11.3535 6.71218 10.4749 6.20744 9.61376 5.70568C9.54506 5.66569 9.51869 5.66628 9.45004 5.70978C9.06288 5.95495 8.65199 5.95729 8.26816 5.71638C8.22817 5.69138 8.19658 5.67971 8.16874 5.67971ZM4.45771 12.8298C4.22256 12.8298 4.03086 12.6404 4.02871 12.4076C4.02773 12.2998 4.07309 12.1914 4.15307 12.1103C4.23423 12.0279 4.34404 11.9804 4.45439 11.9799H4.45659C4.68662 11.9799 4.88178 12.174 4.88276 12.4038C4.88325 12.5163 4.83896 12.6228 4.7581 12.7038C4.67734 12.7846 4.57065 12.8293 4.45771 12.8298ZM4.45659 12.0531L4.45517 12.1263C4.38345 12.1267 4.31138 12.1584 4.25737 12.2131C4.20454 12.2667 4.17456 12.3371 4.17519 12.4063C4.17661 12.559 4.30254 12.6832 4.45595 12.6832C4.5312 12.6829 4.60127 12.6535 4.65444 12.6002C4.70752 12.5471 4.73657 12.4775 4.73628 12.4044C4.73564 12.2536 4.60757 12.1263 4.45659 12.1263V12.0531ZM13.2545 12.8295C13.0125 12.8295 12.8229 12.6434 12.8228 12.4059C12.8228 12.1716 13.013 11.9805 13.2469 11.9801H13.2478C13.4808 11.9801 13.6712 12.1712 13.6721 12.406C13.673 12.6349 13.49 12.8247 13.2642 12.8294L13.2545 12.8295ZM13.2478 12.0533L13.2472 12.1266C13.0939 12.1269 12.9693 12.2522 12.9693 12.4059C12.9694 12.5638 13.092 12.683 13.2546 12.683L13.2614 12.6829C13.4052 12.68 13.5263 12.5534 13.5256 12.4066C13.525 12.2549 13.3978 12.1266 13.2478 12.1266V12.0533H13.2478ZM13.2466 7.75768C13.0193 7.75768 12.8256 7.56413 12.8238 7.33503C12.8218 7.10051 13.0097 6.9069 13.2426 6.90353H13.2484C13.4761 6.90353 13.6702 7.09689 13.6722 7.3258C13.6742 7.56037 13.4861 7.75407 13.2529 7.75764L13.2466 7.75768ZM13.2484 6.97673L13.2447 7.04997C13.0947 7.05212 12.969 7.18215 12.9703 7.33381C12.9715 7.48415 13.098 7.61115 13.2466 7.6112C13.401 7.60886 13.527 7.47878 13.5257 7.32707C13.5244 7.17951 13.3948 7.05002 13.2484 7.05002V6.97673ZM4.45639 7.75729C4.22744 7.75729 4.03174 7.56433 4.0291 7.33596C4.02788 7.22692 4.07314 7.11716 4.15337 7.03483C4.23369 6.95246 4.34209 6.90456 4.45093 6.90334H4.45532C4.68257 6.90334 4.87832 7.09636 4.88276 7.32477C4.88486 7.43366 4.84062 7.54309 4.76137 7.62492C4.68135 7.70759 4.57207 7.75583 4.46147 7.75725L4.45639 7.75729ZM4.45537 6.97653L4.45254 7.04977C4.38237 7.05056 4.31162 7.08234 4.2583 7.13703C4.20493 7.19177 4.1748 7.26364 4.17558 7.3342C4.17729 7.48151 4.30854 7.61076 4.45639 7.61076C4.53139 7.60978 4.60303 7.57785 4.6561 7.52302C4.70844 7.46896 4.73764 7.39772 4.73633 7.32761C4.7334 7.17702 4.60468 7.04977 4.45532 7.04977V6.97653H4.45537ZM8.85092 5.21603H8.84506C8.61503 5.21296 8.43222 5.02966 8.42885 4.7987C8.42719 4.68371 8.47006 4.5758 8.54955 4.49484C8.629 4.41393 8.73598 4.36916 8.85077 4.36877H8.85219C8.96654 4.36877 9.07431 4.41403 9.15556 4.49626C9.23573 4.57741 9.27914 4.68376 9.27782 4.79572C9.27504 5.02746 9.08354 5.21603 8.85092 5.21603ZM8.85219 4.44196L8.85126 4.5152C8.77592 4.51545 8.70585 4.54465 8.65409 4.59743C8.60219 4.65026 8.57421 4.72097 8.57533 4.7965C8.57753 4.94758 8.69687 5.0675 8.84701 5.0695H8.84706C9.0037 5.0695 9.12948 4.94587 9.13129 4.79392C9.13217 4.72145 9.10375 4.65227 9.05131 4.59919C8.99779 4.54504 8.92709 4.5152 8.85214 4.5152V4.44196H8.85219Z" fill="white"/>
<path d="M8.86076 7.8396C9.98293 7.84077 10.8882 8.75581 10.884 9.88452C10.8797 10.9957 9.95939 11.9048 8.84338 11.9003C7.72043 11.8958 6.81823 10.9813 6.82277 9.85215C6.82721 8.73564 7.73581 7.83838 8.86076 7.8396ZM8.86003 11.2257C9.62272 11.2132 10.223 10.5994 10.2106 9.84482C10.1983 9.09912 9.57551 8.49678 8.82883 8.5083C8.08669 8.51978 7.47487 9.1522 7.49118 9.89106C7.50749 10.6333 8.12746 11.2377 8.86003 11.2257Z" fill="white"/>
<path d="M8.85153 11.9736H8.84308C8.28034 11.9713 7.75295 11.7497 7.35812 11.3495C6.9634 10.9494 6.74723 10.4175 6.74953 9.85192C6.75412 8.70197 7.70016 7.76642 8.85841 7.76642C9.42091 7.767 9.94708 7.9861 10.3424 8.38336C10.741 8.78385 10.9593 9.3171 10.9572 9.88488C10.9528 11.0366 10.0082 11.9736 8.85153 11.9736ZM8.86066 7.91285C7.78058 7.91285 6.90026 8.78292 6.89601 9.85245C6.89391 10.3791 7.09504 10.8742 7.46242 11.2466C7.82966 11.6189 8.32018 11.825 8.84367 11.8271H8.85158C9.9278 11.8271 10.8067 10.9555 10.8108 9.88424C10.8128 9.35568 10.6096 8.85934 10.2387 8.48663C9.87091 8.1172 9.38156 7.91339 8.86066 7.91285ZM8.83854 11.2991C8.07228 11.2991 7.43498 10.6681 7.41794 9.89264C7.40964 9.51681 7.55265 9.15655 7.82067 8.87828C8.0903 8.59835 8.44796 8.44088 8.8277 8.43502L8.84987 8.43488C9.6277 8.43488 10.271 9.06681 10.2838 9.84362C10.2901 10.2283 10.1462 10.5909 9.87833 10.8648C9.61071 11.1384 9.24953 11.2926 8.8612 11.299L8.83854 11.2991ZM8.84987 8.58141L8.82995 8.58156C8.48952 8.58678 8.16857 8.72828 7.92619 8.97994C7.68547 9.22989 7.55695 9.55289 7.56437 9.88946C7.57966 10.5859 8.15129 11.1526 8.83854 11.1527L8.8588 11.1526C9.20827 11.1468 9.53312 11.0083 9.77355 10.7624C10.0138 10.5168 10.143 10.1913 10.1373 9.84611C10.1258 9.14869 9.54826 8.58141 8.84987 8.58141Z" fill="white"/>
</svg>
