<svg width="25" height="25" viewBox="0 0 25 25" fill="none" xmlns="http://www.w3.org/2000/svg">
<path fill-rule="evenodd" clip-rule="evenodd" d="M10.7984 14.3062C7.49165 17.5484 4.19399 20.7818 0.88794 24.0233C0.704248 23.8389 0.533691 23.6676 0.337158 23.4702C3.63828 20.2326 6.93359 17.0008 10.2286 13.7691C6.99561 10.346 7.67231 5.07754 10.9683 2.39356C14.1409 -0.189938 18.7357 0.0560582 21.5366 2.97237C24.3834 5.93653 24.4946 10.5258 21.8116 13.5717C19.075 16.6782 14.2346 17.2342 10.7984 14.3062ZM15.9496 1.38838C12.1327 1.36626 8.93545 4.51031 8.90884 8.31197C8.88159 12.2047 11.9783 15.4011 15.7802 15.455C19.716 15.5108 22.926 12.3896 22.9653 8.52793C23.0055 4.5687 19.8842 1.41114 15.9496 1.38838Z" fill="white"/>
<path fill-rule="evenodd" clip-rule="evenodd" d="M5.57666 12.7321C5.87432 12.9947 6.196 13.2335 6.46265 13.5228C7.04146 14.1509 7.32178 14.9116 7.34287 15.7644C7.35073 16.0805 7.20234 16.2303 6.88603 16.2308C4.85215 16.2334 2.81826 16.2338 0.784375 16.2322C0.454883 16.232 0.302588 16.0805 0.316553 15.7509C0.368066 14.5389 0.898486 13.5892 1.89912 12.9028C1.96514 12.8576 2.03291 12.8148 2.11611 12.7602C1.63726 12.1927 1.40415 11.556 1.51147 10.8188C1.59844 10.2216 1.87915 9.72924 2.34243 9.34579C3.23877 8.6039 4.55059 8.63852 5.40669 9.41332C6.16064 10.0956 6.59917 11.4931 5.57666 12.7321ZM1.13584 15.4385C2.94175 15.4385 4.72627 15.4385 6.53447 15.4385C6.36226 14.486 5.86318 13.7989 5.0105 13.3804C4.90288 13.3276 4.74116 13.3232 4.625 13.3604C4.14717 13.5134 3.65981 13.5811 3.19272 13.3936C2.87925 13.2679 2.64463 13.3441 2.40254 13.5086C2.24839 13.6133 2.09238 13.7204 1.95815 13.8483C1.50547 14.2798 1.21763 14.7996 1.13584 15.4385ZM3.82881 9.59277C2.96421 9.59364 2.27144 10.2892 2.26841 11.1598C2.26548 11.9945 2.96729 12.7102 3.79277 12.7142C4.68076 12.7185 5.3937 12.0242 5.39009 11.1587C5.38643 10.2868 4.6937 9.59198 3.82881 9.59277Z" fill="white"/>
<path fill-rule="evenodd" clip-rule="evenodd" d="M14.1361 20.5788C14.9343 21.0517 15.4936 21.7004 15.7613 22.5688C15.8607 22.8911 15.9029 23.2355 15.933 23.5733C15.961 23.8879 15.7961 24.0433 15.4839 24.0436C13.4414 24.0453 11.399 24.0454 9.35663 24.0433C9.05648 24.043 8.90033 23.8893 8.91064 23.5902C8.95243 22.3775 9.47494 21.4235 10.4717 20.7304C10.5442 20.6799 10.6192 20.6329 10.7096 20.5733C10.2207 19.992 9.98876 19.3401 10.1131 18.5858C10.2099 17.9986 10.4947 17.5181 10.9533 17.1441C11.8598 16.4046 13.1876 16.4579 14.0345 17.2582C14.8028 17.9843 15.1515 19.376 14.1361 20.5788ZM9.72709 23.2525C11.5325 23.2525 13.3178 23.2525 15.1078 23.2525C15.1078 23.2092 15.1132 23.1762 15.107 23.1455C14.9165 22.212 14.385 21.5464 13.5197 21.154C13.4387 21.1172 13.3143 21.1375 13.2228 21.1688C12.7642 21.3255 12.2863 21.4009 11.8387 21.2189C11.4682 21.0682 11.1983 21.1733 10.9181 21.3713C10.7857 21.4648 10.6535 21.5619 10.5372 21.6741C10.092 22.1035 9.81371 22.6202 9.72709 23.2525ZM10.8627 18.967C10.8693 19.8267 11.565 20.5297 12.4058 20.5265C13.2922 20.5232 13.998 19.8197 13.9855 18.9522C13.973 18.0849 13.2757 17.4031 12.4029 17.4048C11.5606 17.4064 10.8562 18.1209 10.8627 18.967Z" fill="white"/>
<path fill-rule="evenodd" clip-rule="evenodd" d="M22.1892 8.40339C22.193 11.876 19.3924 14.6662 15.8993 14.6696C12.524 14.673 9.69346 11.8599 9.68873 8.49724C9.6838 4.98415 12.4658 2.16877 15.9413 2.16965C19.3786 2.17048 22.1854 4.97087 22.1892 8.40339ZM20.155 11.8692C21.868 9.87624 21.9495 6.49133 19.6033 4.3674C17.29 2.27326 13.7264 2.53215 11.7451 4.91467C9.77383 7.28517 10.3499 10.3952 11.7289 11.8533C12.0411 10.4989 12.8237 9.50402 14.0471 8.85109C12.817 7.55676 13.0548 5.87209 14.0062 4.92209C15.0003 3.92956 16.5922 3.85158 17.6708 4.74382C18.2355 5.211 18.5691 5.81184 18.6539 6.53713C18.7583 7.43156 18.4563 8.19509 17.8242 8.85139C19.066 9.50446 19.8316 10.5043 20.155 11.8692ZM12.4442 12.3154C14.7879 12.3154 17.094 12.3154 19.406 12.3154C19.406 12.2502 19.415 12.1934 19.4046 12.1404C19.1469 10.8245 18.3931 9.91657 17.1482 9.42253C17.0628 9.38864 16.9411 9.41066 16.8468 9.4403C16.3315 9.60222 15.7995 9.68342 15.2913 9.49494C14.8864 9.34484 14.5686 9.45041 14.2381 9.64265C13.2172 10.2366 12.6266 11.1181 12.4442 12.3154ZM17.892 6.86828C17.8989 5.79269 17.0266 4.91008 15.9508 4.90407C14.8841 4.89811 13.9977 5.76345 13.9866 6.82145C13.9752 7.91647 14.8455 8.80759 15.9283 8.80959C17.011 8.81164 17.8852 7.94743 17.892 6.86828ZM13.1773 13.1172C14.9169 14.1966 17.2375 14.0727 18.6687 13.1172C16.844 13.1172 15.0346 13.1172 13.1773 13.1172Z" fill="white"/>
</svg>
