<?xml version="1.0" encoding="utf-8"?>
<!-- Generator: Adobe Illustrator 16.0.0, SVG Export Plug-In . SVG Version: 6.00 Build 0)  -->
<!DOCTYPE svg PUBLIC "-//W3C//DTD SVG 1.1//EN" "http://www.w3.org/Graphics/SVG/1.1/DTD/svg11.dtd">
<svg version="1.1" id="Layer_1" xmlns="http://www.w3.org/2000/svg" xmlns:xlink="http://www.w3.org/1999/xlink" x="0px" y="0px"
	 width="640px" height="640px" viewBox="0 0 640 640" enable-background="new 0 0 640 640" xml:space="preserve">
<path fill="#FFFFFF" d="M642.479,88.948c-1.63-6.278-2.947-12.656-4.941-18.815c-9.358-28.887-28.457-48.356-57.117-58.445
	c-4.165-1.466-8.271-3.098-12.406-4.651c24.627,0,49.254,0,74.467,0C642.479,34.337,642.479,61.642,642.479,88.948z"/>
<linearGradient id="SVGID_1_" gradientUnits="userSpaceOnUse" x1="325.0156" y1="35.5" x2="325.0156" y2="615.6586">
	<stop  offset="0" style="stop-color:#6A71E5"/>
	<stop  offset="1" style="stop-color:#3FB4E5"/>
</linearGradient>
<path fill="url(#SVGID_1_)" d="M239.5,388.693c-2.356,1.59-4.146,2.596-5.704,3.877c-23.766,19.572-47.501,39.183-71.082,58.646
	c21.877,53.846,13.485,91.435-25.004,113.792c-33.918,19.704-76.833,11.1-100.818-20.218c-23.044-30.09-20.5-73.584,5.887-100.666
	c30.161-30.957,70.842-31.81,111.487-1.526c25.313-20.85,50.871-41.903,76.924-63.366c-30.485-48.998-28.959-96.357,5.852-142.617
	c-24.596-26.365-48.95-52.471-73.152-78.414c-52.465,24.092-90.934,17.205-114.804-20.144
	C28.293,105.519,34.723,62.079,63.999,37.306c30.097-25.464,73.578-24.839,102.787,1.479c31.115,28.035,33.454,69.253,5.483,110.459
	c11.845,12.805,23.869,25.869,35.963,38.867c12.175,13.083,24.421,26.106,37.184,39.741c42.468-34.202,87.764-39.233,137.417-13.018
	c15.516-22.156,31.159-44.497,46.667-66.644c-34.012-42.522-35.931-83.181-5.928-114.814c26.268-27.693,70.729-31.724,101.539-9.204
	c32.039,23.418,41.657,65.952,22.648,100.154c-20.988,37.759-60.086,49.133-108.21,30.611
	c-15.274,21.768-30.753,43.821-46.521,66.289c1.377,1.704,2.442,3.438,3.892,4.753c24.302,22.107,37.851,49.385,38.599,82.356
	c0.188,8.174,3.351,11.011,10.846,11.584c8.701,0.668,18.604,5.022,25.636,2.104c5.85-2.426,8.188-13.117,12.27-20.04
	c19.614-33.267,59.362-47.192,95.225-33.43c35.334,13.562,55.353,50.854,47.776,89.008c-7.286,36.705-41.169,62.239-80.529,60.691
	c-36.726-1.443-67.257-29.943-72.227-67.391c-0.647-4.885-1.415-9.758-2.21-15.2c-12.205-1.828-24.04-3.604-37.467-5.615
	c-7.749,34.998-26.327,62.488-58.205,80.996c11.507,24.219,22.681,47.734,33.711,70.95c56.564-5.415,91.29,14.24,101.338,56.714
	c8.912,37.668-10.996,76.079-46.924,90.529c-35.057,14.1-76.411-0.306-95.561-32.762c-17.366-29.437-18.043-76.615,30.264-109.124
	c-10.899-23.028-21.878-46.221-33.456-70.684C318.233,432.971,275.833,423.752,239.5,388.693z M321.289,408.547
	c52.417,1.387,97.392-41.296,98.888-93.848c1.525-53.538-40.915-99.087-93.548-100.403c-55.35-1.382-99.876,40.305-101.518,95.044
	C223.511,362.652,266.602,407.102,321.289,408.547z M180.171,96.72c0.444-35.984-29.521-66.455-65.462-66.563
	c-35.471-0.107-65.165,29.19-65.796,64.92c-0.64,36.187,28.586,66.558,64.736,67.275C149.376,163.061,179.72,133.122,180.171,96.72z
	 M551.526,407.092c36.386-0.495,66.245-30.646,65.823-66.462c-0.425-36.126-30.874-65.999-66.768-65.506
	c-36.015,0.498-65.604,30.93-65.208,67.073C485.761,377.424,516.488,407.568,551.526,407.092z M99.886,432.28
	c-36.399-0.395-66.313,28.464-67.241,64.87c-0.9,35.262,29.785,66.429,65.605,66.634c36.062,0.207,66.301-29.59,66.576-65.605
	C165.096,462.891,135.309,432.663,99.886,432.28z M436.753,491.86c-36.674-0.146-66.513,28.988-66.572,65
	c-0.058,35.533,29.433,65.462,64.896,65.858c36.896,0.415,67.018-29.191,67.255-66.105
	C502.556,521.582,472.6,492.004,436.753,491.86z M480.291,21.789c-36.675-0.161-65.679,27.886-66.011,63.835
	c-0.346,37.095,28.079,66.758,64.292,67.098c36.963,0.347,66.531-28.372,66.631-64.712
	C545.305,50.639,517.185,21.952,480.291,21.789z"/>
<linearGradient id="SVGID_2_" gradientUnits="userSpaceOnUse" x1="353.7256" y1="35.5" x2="353.7256" y2="615.6586">
	<stop  offset="0" style="stop-color:#6A71E5"/>
	<stop  offset="1" style="stop-color:#3FB4E5"/>
</linearGradient>
<path fill="url(#SVGID_2_)" d="M387.397,369.193c-22.643,0-44.513,0-67.344,0c0-39.385,0-78.205,0-117.785
	c22.692,0,44.533,0,67.344,0C387.397,290.6,387.397,329.133,387.397,369.193z M360.898,342.634c-5.045,0-9.364,0-14.391,0
	c0,5.96,0,11.152,0,16.873c5.033,0,9.364,0,14.391,0C360.898,353.596,360.898,348.396,360.898,342.634z M367.964,304.152
	c5.621,0,9.917,0,14.139,0c0-6.296,0-11.545,0-17.542c-4.872,0-9.158,0-14.139,0C367.964,292.829,367.964,298.374,367.964,304.152z
	 M339.505,277.736c0-6.575,0-11.77,0-17.678c-4.982,0-9.269,0-13.927,0c0,6.199,0,11.741,0,17.678
	C330.43,277.736,334.461,277.736,339.505,277.736z M339.566,314.323c-5.504,0.276-9.762,0.486-14.077,0.703
	c0,6.423,0,11.541,0,16.968c4.933,0,9.196,0,14.077,0C339.566,326.186,339.566,321.066,339.566,314.323z M368.076,314.995
	c0,6.001,0,11.464,0,16.938c5.123,0,9.42,0,14.004,0c0-5.944,0-11.108,0-16.938C377.19,314.995,372.908,314.995,368.076,314.995z"/>
<linearGradient id="SVGID_3_" gradientUnits="userSpaceOnUse" x1="288.4585" y1="35.5" x2="288.4585" y2="615.6586">
	<stop  offset="0" style="stop-color:#6A71E5"/>
	<stop  offset="1" style="stop-color:#3FB4E5"/>
</linearGradient>
<path fill="url(#SVGID_3_)" d="M262.82,282.37c17.219,0,33.704,0,51.278,0c0,28.608,0,57.051,0,86.487c-16.42,0-33.215,0-51.278,0
	C262.82,340.736,262.82,312.38,262.82,282.37z M293.104,331.457c6.138,0,10.885,0,16.035,0c0-6.107,0-11.309,0-16.938
	c-5.755,0-10.786,0-16.035,0C293.104,320.615,293.104,325.52,293.104,331.457z M284.034,305.163c0-6.628,0-11.829,0-17.634
	c-5.484,0-10.243,0-15.462,0c0,6.262,0,11.768,0,17.634C274.029,305.163,278.525,305.163,284.034,305.163z"/>
<linearGradient id="SVGID_4_" gradientUnits="userSpaceOnUse" x1="115.1099" y1="35.5" x2="115.1098" y2="615.6586">
	<stop  offset="0" style="stop-color:#6A71E5"/>
	<stop  offset="1" style="stop-color:#3FB4E5"/>
</linearGradient>
<path fill="url(#SVGID_4_)" d="M83.046,136.681c-0.239-22.2,12.501-40.422,29.099-41.692c19.379-1.479,31.92,12.927,35.032,41.692
	C125.733,136.681,104.404,136.681,83.046,136.681z"/>
<linearGradient id="SVGID_5_" gradientUnits="userSpaceOnUse" x1="114.2612" y1="35.5" x2="114.2612" y2="615.6586">
	<stop  offset="0" style="stop-color:#6A71E5"/>
	<stop  offset="1" style="stop-color:#3FB4E5"/>
</linearGradient>
<path fill="url(#SVGID_5_)" d="M113.822,86.742c-11.509-0.283-21.261-10.496-20.949-21.934
	c0.317-11.631,10.172-20.779,22.148-20.559c11.973,0.22,21.012,9.729,20.623,21.697C135.257,77.821,125.59,87.035,113.822,86.742z"
	/>
<linearGradient id="SVGID_6_" gradientUnits="userSpaceOnUse" x1="551.8877" y1="35.5" x2="551.8877" y2="615.6586">
	<stop  offset="0" style="stop-color:#6A71E5"/>
	<stop  offset="1" style="stop-color:#3FB4E5"/>
</linearGradient>
<path fill="url(#SVGID_6_)" d="M583.939,382.551c-21.4,0-42.745,0-64.104,0c0.277-24.859,13.156-42.207,31.171-42.662
	C569.855,339.409,582.104,354.99,583.939,382.551z"/>
<linearGradient id="SVGID_7_" gradientUnits="userSpaceOnUse" x1="551.2568" y1="35.5" x2="551.2568" y2="615.6586">
	<stop  offset="0" style="stop-color:#6A71E5"/>
	<stop  offset="1" style="stop-color:#3FB4E5"/>
</linearGradient>
<path fill="url(#SVGID_7_)" d="M572.543,310.09c-0.001,11.721-9.558,21.587-21.02,21.699c-11.44,0.115-21.437-9.762-21.552-21.289
	c-0.119-11.926,9.056-21.123,21.164-21.221C563.46,289.179,572.546,298.012,572.543,310.09z"/>
<linearGradient id="SVGID_8_" gradientUnits="userSpaceOnUse" x1="99.0498" y1="35.5" x2="99.0498" y2="615.6586">
	<stop  offset="0" style="stop-color:#6A71E5"/>
	<stop  offset="1" style="stop-color:#3FB4E5"/>
</linearGradient>
<path fill="url(#SVGID_8_)" d="M131.195,539.445c-21.461,0-42.865,0-64.29,0c0.903-25.428,13.365-42.271,31.212-42.663
	C117.124,496.364,128.873,511.279,131.195,539.445z"/>
<linearGradient id="SVGID_9_" gradientUnits="userSpaceOnUse" x1="98.7896" y1="35.5" x2="98.7895" y2="615.6586">
	<stop  offset="0" style="stop-color:#6A71E5"/>
	<stop  offset="1" style="stop-color:#3FB4E5"/>
</linearGradient>
<path fill="url(#SVGID_9_)" d="M99.139,488.193c-12.043,0.254-21.497-8.779-21.667-20.701c-0.167-11.721,9.243-21.55,20.866-21.792
	c11.416-0.239,21.577,9.563,21.768,20.999C120.304,478.552,111.145,487.939,99.139,488.193z"/>
<linearGradient id="SVGID_10_" gradientUnits="userSpaceOnUse" x1="436.7275" y1="35.5" x2="436.7275" y2="615.6586">
	<stop  offset="0" style="stop-color:#6A71E5"/>
	<stop  offset="1" style="stop-color:#3FB4E5"/>
</linearGradient>
<path fill="url(#SVGID_10_)" d="M468.899,599.294c-21.464,0-42.899,0-64.344,0c0.248-24.929,13.394-43.21,31.255-43.906
	C454.161,554.675,467.403,572.067,468.899,599.294z"/>
<linearGradient id="SVGID_11_" gradientUnits="userSpaceOnUse" x1="436.249" y1="35.5" x2="436.249" y2="615.6586">
	<stop  offset="0" style="stop-color:#6A71E5"/>
	<stop  offset="1" style="stop-color:#3FB4E5"/>
</linearGradient>
<path fill="url(#SVGID_11_)" d="M436.488,504.904c11.708,0.098,21.257,9.881,21.078,21.59c-0.184,11.794-9.849,21.206-21.621,21.05
	c-11.805-0.156-21.117-9.741-21.016-21.624C415.033,514.055,424.521,504.805,436.488,504.904z"/>
<linearGradient id="SVGID_12_" gradientUnits="userSpaceOnUse" x1="480.0195" y1="35.5" x2="480.0195" y2="615.6586">
	<stop  offset="0" style="stop-color:#6A71E5"/>
	<stop  offset="1" style="stop-color:#3FB4E5"/>
</linearGradient>
<path fill="url(#SVGID_12_)" d="M511.947,129.252c-21.844,0-42.849,0-63.833,0c-0.684-24.182,13.525-43.63,31.564-43.818
	C498.035,85.243,511.384,102.909,511.947,129.252z"/>
<linearGradient id="SVGID_13_" gradientUnits="userSpaceOnUse" x1="479.458" y1="35.5" x2="479.458" y2="615.6586">
	<stop  offset="0" style="stop-color:#6A71E5"/>
	<stop  offset="1" style="stop-color:#3FB4E5"/>
</linearGradient>
<path fill="url(#SVGID_13_)" d="M500.697,55.905c0.165,12.363-8.486,21.458-20.602,21.653c-11.708,0.19-21.543-9.163-21.871-20.798
	c-0.321-11.428,9.405-21.467,21.04-21.711C491.297,34.794,500.536,43.786,500.697,55.905z"/>
</svg>
