<svg width="50" height="50" viewBox="0 0 50 50" fill="none" xmlns="http://www.w3.org/2000/svg">
<rect width="50" height="50" rx="4" fill="#6A71E5"/>
<g clip-path="url(#clip0)">
<path fill-rule="evenodd" clip-rule="evenodd" d="M25.4834 26.5416C23.449 26.5416 12.9678 18.0948 12.9678 18.0948V17.1666C12.9678 16.0166 13.9011 15.0833 15.0532 15.0833H35.9136C37.0667 15.0833 38.0001 16.0166 38.0001 17.1666L37.9834 18.2083C37.9834 18.2083 27.6157 26.5416 25.4834 26.5416ZM25.4834 29.4062C27.7136 29.4062 37.9834 21.3333 37.9834 21.3333L38.0001 33.8333C38.0001 34.9833 37.0667 35.9166 35.9136 35.9166H15.0532C13.9021 35.9166 12.9678 34.9833 12.9678 33.8333L12.9844 21.3333C12.9834 21.3333 23.449 29.4062 25.4834 29.4062Z" fill="white"/>
</g>
<defs>
<clipPath id="clip0">
<rect width="25" height="25" fill="white" transform="translate(13 13)"/>
</clipPath>
</defs>
</svg>
