<?xml version="1.0" encoding="utf-8"?>
<!-- Generator: Adobe Illustrator 16.0.0, SVG Export Plug-In . SVG Version: 6.00 Build 0)  -->
<!DOCTYPE svg PUBLIC "-//W3C//DTD SVG 1.1//EN" "http://www.w3.org/Graphics/SVG/1.1/DTD/svg11.dtd">
<svg version="1.1" id="Layer_1" xmlns="http://www.w3.org/2000/svg" xmlns:xlink="http://www.w3.org/1999/xlink" x="0px" y="0px"
	 width="512px" height="512px" viewBox="0 0 512 512" enable-background="new 0 0 512 512" xml:space="preserve">
<linearGradient id="SVGID_1_" gradientUnits="userSpaceOnUse" x1="352.4004" y1="-0.5" x2="352.4004" y2="437.4612">
	<stop  offset="0" style="stop-color:#6A71E5"/>
	<stop  offset="1" style="stop-color:#3FB4E5"/>
</linearGradient>
<path fill="url(#SVGID_1_)" d="M464.871,0H239.93c-26.031,0-47.129,21.102-47.129,47.129V157.93
	c11.891,5.91,24.738,12.301,36.73,18.262l18.348-36.711c11.109-22.199,38.191-31.219,60.383-20.129
	c22.238,11.129,31.25,38.137,20.117,60.379l-32.707,65.43c0.867,8.66,0.098,17.391-2.344,25.84h21.594l-56.953,156.609
	c-3.379,9.289,3.152,20.129,14.102,20.129c6.121,0,11.879-3.777,14.09-9.879L346.84,271h10.512l61.297,166.91
	c2.23,6.07,7.973,9.828,14.09,9.828c10.23,0,17.73-10.219,14.07-20.168L389.309,271h75.563C490.898,271,512,249.898,512,223.871
	V47.129C512,21.102,490.898,0,464.871,0z M432.73,206.738H365.43c-8.281,0-15-6.719-15-15c0-8.289,6.719-15,15-15h67.301
	c8.289,0,15,6.711,15,15C447.73,200.02,441.02,206.738,432.73,206.738z M432.73,150.5H365.43c-8.281,0-15-6.711-15-15
	c0-8.281,6.719-15,15-15h67.301c8.289,0,15,6.719,15,15C447.73,143.789,441.02,150.5,432.73,150.5z M432.73,94.27H272.07
	c-8.289,0-15-6.719-15-15s6.711-15,15-15h160.66c8.289,0,15,6.719,15,15S441.02,94.27,432.73,94.27z"/>
<linearGradient id="SVGID_2_" gradientUnits="userSpaceOnUse" x1="151.5688" y1="-0.5" x2="151.5688" y2="437.4612">
	<stop  offset="0" style="stop-color:#6A71E5"/>
	<stop  offset="1" style="stop-color:#3FB4E5"/>
</linearGradient>
<path fill="url(#SVGID_2_)" d="M263.922,264.566c2.711-7.941,2.691-16.238,0.402-23.809l37.227-74.445
	c3.703-7.41,0.703-16.422-6.707-20.125c-7.406-3.707-16.418-0.703-20.125,6.707l-31.75,63.492
	c-18.977-9.449-47.809-23.785-71.035-35.336c-21.609-10.746-37.031-20.383-63.344-20.383H95.336c20.488,0,38.773-9.43,50.742-24.188
	c9.133-11.23,14.594-25.543,14.594-41.141c0-36.09-29.25-65.34-65.344-65.34C59.25,30,30,59.25,30,95.34
	c0,17.332,6.75,33.082,17.762,44.77c11.906,12.66,28.816,20.559,47.563,20.563c-25.133,0-49.703,10.184-67.379,27.906
	C9.926,206.551,0,230.496,0,256.004v48.199c0,20.75,13.473,38.406,32.133,44.688v83.844c0,8.285,6.715,15,15,15h96.398
	c8.285,0,15-6.715,15-15V264.199c14.223,7.109,32.906,16.449,48.023,24.012c10.598,5.297,22.98,5.773,34.023,1.281
	c11.012-4.531,19.5-13.551,23.285-24.75C263.883,264.684,263.902,264.625,263.922,264.566z"/>
</svg>
