<?xml version="1.0" encoding="utf-8"?>
<!-- Generator: Adobe Illustrator 16.0.0, SVG Export Plug-In . SVG Version: 6.00 Build 0)  -->
<!DOCTYPE svg PUBLIC "-//W3C//DTD SVG 1.1//EN" "http://www.w3.org/Graphics/SVG/1.1/DTD/svg11.dtd">
<svg version="1.1" id="Layer_1" xmlns="http://www.w3.org/2000/svg" xmlns:xlink="http://www.w3.org/1999/xlink" x="0px" y="0px"
	 width="512px" height="512px" viewBox="0 0 512 512" enable-background="new 0 0 512 512" xml:space="preserve">
<linearGradient id="SVGID_1_" gradientUnits="userSpaceOnUse" x1="256" y1="9.5" x2="256" y2="511.9818">
	<stop  offset="0" style="stop-color:#6A71E5"/>
	<stop  offset="1" style="stop-color:#3FB4E5"/>
</linearGradient>
<path fill="url(#SVGID_1_)" d="M365.24,132.957c-3.484-5.762-10.379-8.5-16.867-6.691c-6.484,1.809-10.973,7.719-10.973,14.449
	c0,18.309-14.895,33.199-33.199,33.199s-33.199-14.891-33.199-33.199V15c0-6.066-3.656-11.535-9.262-13.855
	c-5.605-2.324-12.055-1.043-16.344,3.25c-1.688,1.684-41.684,41.918-82.207,102.703c-23.898,35.844-42.969,71.398-56.679,105.676
	c-17.367,43.426-26.176,84.996-26.176,123.563C80.334,433.195,159.139,512,256.002,512c96.859,0,175.664-78.805,175.664-175.664
	C431.67,274.332,409.318,205.906,365.24,132.957z M356.092,332.434c0,8.285-6.715,15-15,15c-8.281,0-15-6.715-15-15v-28.051
	l-74.688,74.691c-2.816,2.813-6.629,4.391-10.609,4.391c-3.977,0-7.793-1.578-10.605-4.391l-34.836-34.84l-23.477,23.477
	c-5.859,5.859-15.355,5.859-21.215,0s-5.859-15.355,0-21.215l34.086-34.082c5.859-5.855,15.355-5.855,21.215,0.004l34.832,34.836
	l64.086-64.086h-28.055c-8.285,0-15-6.715-15-15s6.715-15,15-15h64.27c8.281,0,15,6.719,15,15v64.266H356.092z"/>
</svg>
