<svg width="70" height="70" viewBox="0 0 70 70" fill="none" xmlns="http://www.w3.org/2000/svg">
<path d="M68.5416 67.0834H67.0832V24.7916C67.0832 23.9866 66.4299 23.3332 65.6249 23.3332H56.8749C56.0699 23.3332 55.4165 23.9866 55.4165 24.7916V67.0832H49.5831V42.2916C49.5831 41.4866 48.9297 40.8332 48.1247 40.8332H39.3747C38.5697 40.8332 37.9163 41.4866 37.9163 42.2916V67.0832H32.083V36.4582C32.083 35.6532 31.4296 34.9998 30.6246 34.9998H21.8746C21.0696 34.9998 20.4162 35.6532 20.4162 36.4582V67.0832H14.5828V51.0416C14.5828 50.2366 13.9295 49.5832 13.1245 49.5832H4.375C3.57 49.5832 2.91662 50.2366 2.91662 51.0416V67.0832H1.45838C0.653379 67.0834 0 67.7366 0 68.5416C0 69.3466 0.653379 70 1.45838 70H4.375H13.125H21.875H30.625H39.375H48.125H56.875H65.625H68.5416C69.3466 70 70 69.3466 70 68.5416C70 67.7366 69.3466 67.0834 68.5416 67.0834Z" fill="url(#paint0_linear)"/>
<path d="M61.2513 0C58.0342 0 55.418 2.61625 55.418 5.83338C55.418 6.9125 55.733 7.91 56.2433 8.77926L46.6971 18.3255C45.828 17.815 44.8305 17.5 43.7513 17.5C41.9226 17.5 40.3067 18.3634 39.2363 19.6846L32.0701 17.64C32.0701 17.5934 32.0847 17.5496 32.0847 17.5C32.0847 14.2829 29.4685 11.6666 26.2513 11.6666C23.0342 11.6666 20.418 14.2829 20.418 17.5C20.418 18.3487 20.6076 19.1479 20.9342 19.8741L11.8196 27.1454C10.9272 26.5854 9.8801 26.25 8.75135 26.25C5.53422 26.25 2.91797 28.8663 2.91797 32.0834C2.91797 35.3005 5.53422 37.9168 8.75135 37.9168C11.9685 37.9168 14.5847 35.3005 14.5847 32.0834C14.5847 31.0596 14.296 30.1088 13.8294 29.2718L22.7631 22.1464C23.7402 22.8814 24.939 23.3335 26.2515 23.3335C28.3894 23.3335 30.2444 22.1639 31.2594 20.4431L38.0172 22.371C37.9619 22.686 37.9181 23.0039 37.9181 23.3335C37.9181 26.5506 40.5344 29.1669 43.7515 29.1669C46.9686 29.1669 49.5849 26.5506 49.5849 23.3335C49.5849 22.2544 49.2699 21.2569 48.7595 20.3876L58.3086 10.8385C59.1749 11.3519 60.1724 11.6669 61.2515 11.6669C64.4686 11.6669 67.0849 9.05064 67.0849 5.83352C67.0847 2.61625 64.4685 0 61.2513 0Z" fill="url(#paint1_linear)"/>
<defs>
<linearGradient id="paint0_linear" x1="35" y1="23.3332" x2="35" y2="70" gradientUnits="userSpaceOnUse">
<stop stop-color="#6A71E5"/>
<stop offset="1" stop-color="#3FB4E5"/>
</linearGradient>
<linearGradient id="paint1_linear" x1="35.0014" y1="0" x2="35.0014" y2="37.9168" gradientUnits="userSpaceOnUse">
<stop stop-color="#6A71E5"/>
<stop offset="1" stop-color="#3FB4E5"/>
</linearGradient>
</defs>
</svg>
