<svg width="22" height="22" viewBox="0 0 22 22" fill="none" xmlns="http://www.w3.org/2000/svg">
<g clip-path="url(#clip0)">
<path d="M9.42068 15.2608L8.21442 16.4756C8.19882 16.4913 8.18099 16.4947 8.16875 16.4947H8.16866C8.15646 16.4947 8.13867 16.4914 8.12307 16.4759L7.67504 16.0278C7.54922 15.9019 7.34516 15.9019 7.21931 16.0277C7.09345 16.1536 7.09345 16.3576 7.21931 16.4835L7.66734 16.9316C7.80128 17.0655 7.97925 17.1392 8.16862 17.1392H8.16986C8.3597 17.1389 8.53793 17.0645 8.67178 16.9298L9.87809 15.7149C10.0035 15.5886 10.0027 15.3845 9.87645 15.2591C9.75008 15.1338 9.54611 15.1345 9.42068 15.2608ZM9.87645 6.48527C9.75013 6.35985 9.54611 6.36058 9.42068 6.48691L8.21442 7.70176C8.19882 7.71745 8.18099 7.72075 8.16879 7.72075H8.16866C8.15646 7.72075 8.13867 7.71749 8.12307 7.70193L7.67504 7.25386C7.54922 7.128 7.34516 7.12796 7.21931 7.25381C7.09345 7.37967 7.09345 7.58373 7.21931 7.70954L7.66734 8.15766C7.80128 8.29159 7.97925 8.36528 8.16866 8.36528H8.16995C8.35979 8.36494 8.53802 8.29061 8.67182 8.15586L9.87813 6.941C10.0035 6.81471 10.0027 6.6107 9.87645 6.48527ZM9.87645 10.8722C9.75013 10.7468 9.54611 10.7475 9.42068 10.8738L8.21442 12.0887C8.19882 12.1044 8.18099 12.1077 8.16879 12.1077H8.16866C8.15646 12.1077 8.13867 12.1044 8.12307 12.0889L7.67504 11.6408C7.54922 11.5149 7.34516 11.5149 7.21931 11.6407C7.09345 11.7666 7.09345 11.9707 7.21931 12.0965L7.66734 12.5446C7.80128 12.6785 7.97925 12.7522 8.16866 12.7522H8.16995C8.35979 12.7519 8.53802 12.6775 8.67182 12.5428L9.87813 11.3279C10.0035 11.2017 10.0027 10.9976 9.87645 10.8722ZM7.85636 6.12498H6.80595C6.41502 6.12498 6.09697 6.44304 6.09697 6.83396V9.15845C6.09697 9.54937 6.41502 9.86743 6.80595 9.86743H9.13043C9.52136 9.86743 9.83941 9.54937 9.83941 9.15845V8.34298C9.83941 8.16496 9.69513 8.02072 9.51715 8.02072C9.33917 8.02072 9.19488 8.16496 9.19488 8.34298V9.15845C9.19488 9.19398 9.16597 9.2229 9.13043 9.2229H6.80595C6.77041 9.2229 6.7415 9.19398 6.7415 9.15845V6.83396C6.7415 6.79843 6.77041 6.76951 6.80595 6.76951H7.85636C8.03434 6.76951 8.17863 6.62527 8.17863 6.44725C8.17863 6.26923 8.03434 6.12498 7.85636 6.12498ZM17.7396 0.661719H16.2624C16.0844 0.661719 15.9401 0.805965 15.9401 0.983984C15.9401 1.162 16.0844 1.30625 16.2624 1.30625H17.7396C18.2699 1.30625 18.7013 1.73766 18.7013 2.26789V20.3938C18.7013 20.9241 18.2699 21.3555 17.7396 21.3555H4.25949C3.72921 21.3555 3.29785 20.9241 3.29785 20.3938V2.26789C3.29785 1.73766 3.72926 1.30625 4.25949 1.30625H6.70025V1.94562H4.47348C4.17781 1.94562 3.93723 2.18621 3.93723 2.48183V15.7529C3.93723 15.9309 4.08152 16.0752 4.25949 16.0752C4.43747 16.0752 4.58176 15.9309 4.58176 15.7529V2.59016H6.11304C6.07776 2.69027 6.05834 2.79778 6.05834 2.9098V3.80364C6.05834 4.33533 6.49086 4.76786 7.02251 4.76786H14.9766C15.5082 4.76786 15.9408 4.33533 15.9408 3.80364V2.90984C15.9408 2.79782 15.9213 2.69027 15.8861 2.5902H17.4173V16.7196H15.745C14.8595 16.7196 14.139 17.4402 14.139 18.3259V19.9986H4.58176V17.042C4.58176 16.864 4.43747 16.7197 4.25949 16.7197C4.08152 16.7197 3.93723 16.864 3.93723 17.042V20.1068C3.93723 20.4025 4.17781 20.643 4.47348 20.643H14.4611C14.5468 20.6432 14.6287 20.6085 14.689 20.5486L14.6898 20.5479L17.9676 17.2697C18.0224 17.2145 18.0559 17.14 18.0609 17.0624C18.0611 17.0595 18.062 2.48914 18.062 2.48183C18.062 2.18616 17.8214 1.94562 17.5257 1.94562H15.2989V1.05157C15.2989 0.471754 14.8272 0 14.2474 0H7.75169C7.30963 0 6.93069 0.274398 6.77548 0.661719H4.25949C3.37382 0.661719 2.65332 1.38226 2.65332 2.26789V20.3938C2.65332 21.2795 3.37386 22 4.25949 22H17.7396C18.6253 22 19.3458 21.2795 19.3458 20.3938V2.26789C19.3458 1.38226 18.6253 0.661719 17.7396 0.661719ZM14.7835 19.5426V18.3259C14.7835 17.7956 15.2149 17.3641 15.7451 17.3641H16.9617L14.7835 19.5426ZM7.34478 1.05157C7.34478 0.827105 7.52731 0.644531 7.75169 0.644531H14.2474C14.4718 0.644531 14.6544 0.827105 14.6544 1.05157V2.23412C14.6544 2.45859 14.4718 2.64116 14.2474 2.64116H7.75169C7.52731 2.64116 7.34478 2.45859 7.34478 2.23412V1.05157ZM6.70287 2.90984C6.70287 2.82 6.74021 2.73883 6.80006 2.68069C6.96829 3.0378 7.3315 3.28565 7.75169 3.28565H14.2474C14.6676 3.28565 15.0309 3.0378 15.1991 2.68069C15.2589 2.73883 15.2963 2.82 15.2963 2.90984V3.80368C15.2963 3.97998 15.1529 4.12337 14.9766 4.12337H7.02251C6.84625 4.12337 6.70287 3.97994 6.70287 3.80368V2.90984ZM6.09697 13.5454C6.09697 13.9363 6.41502 14.2544 6.80595 14.2544H9.13043C9.52136 14.2544 9.83941 13.9363 9.83941 13.5454V12.7299C9.83941 12.5519 9.69513 12.4077 9.51715 12.4077C9.33917 12.4077 9.19488 12.5519 9.19488 12.7299V13.5454C9.19488 13.5809 9.16597 13.6098 9.13043 13.6098H6.80595C6.77041 13.6098 6.7415 13.5809 6.7415 13.5454V11.2209C6.7415 11.1854 6.77041 11.1564 6.80595 11.1564H7.85636C8.03434 11.1564 8.17863 11.0122 8.17863 10.8342C8.17863 10.6562 8.03434 10.5119 7.85636 10.5119H6.80595C6.41502 10.5119 6.09697 10.83 6.09697 11.2209V13.5454ZM10.9835 15.5434H15.5799C15.7579 15.5434 15.9022 15.3992 15.9022 15.2212C15.9022 15.0431 15.7579 14.8989 15.5799 14.8989H10.9835C10.8055 14.8989 10.6612 15.0431 10.6612 15.2212C10.6612 15.3992 10.8055 15.5434 10.9835 15.5434ZM6.09697 17.9323C6.09697 18.3232 6.41502 18.6413 6.80595 18.6413H9.13043C9.52136 18.6413 9.83941 18.3232 9.83941 17.9323V17.1169C9.83941 16.9389 9.69513 16.7946 9.51715 16.7946C9.33917 16.7946 9.19488 16.9389 9.19488 17.1169V17.9323C9.19488 17.9679 9.16597 17.9968 9.13043 17.9968H6.80595C6.77041 17.9968 6.7415 17.9679 6.7415 17.9323V15.6079C6.7415 15.5723 6.77041 15.5434 6.80595 15.5434H7.85636C8.03434 15.5434 8.17863 15.3992 8.17863 15.2212C8.17863 15.0431 8.03434 14.8989 7.85636 14.8989H6.80595C6.41502 14.8989 6.09697 15.217 6.09697 15.6079V17.9323ZM10.9835 16.8325H13.6463C13.8243 16.8325 13.9686 16.6882 13.9686 16.5102C13.9686 16.3322 13.8243 16.188 13.6463 16.188H10.9835C10.8055 16.188 10.6612 16.3322 10.6612 16.5102C10.6612 16.6882 10.8055 16.8325 10.9835 16.8325ZM10.9835 12.4456H13.6463C13.8243 12.4456 13.9686 12.3013 13.9686 12.1233C13.9686 11.9453 13.8243 11.801 13.6463 11.801H10.9835C10.8055 11.801 10.6612 11.9453 10.6612 12.1233C10.6612 12.3013 10.8055 12.4456 10.9835 12.4456ZM10.9835 11.1565H15.5799C15.7579 11.1565 15.9022 11.0122 15.9022 10.8342C15.9022 10.6562 15.7579 10.512 15.5799 10.512H10.9835C10.8055 10.512 10.6612 10.6562 10.6612 10.8342C10.6612 11.0122 10.8055 11.1565 10.9835 11.1565ZM10.9835 8.05857H15.5799C15.7579 8.05857 15.9022 7.91433 15.9022 7.73631C15.9022 7.55829 15.7579 7.41404 15.5799 7.41404H10.9835C10.8055 7.41404 10.6612 7.55829 10.6612 7.73631C10.6612 7.91433 10.8055 8.05857 10.9835 8.05857ZM10.9835 6.76951H15.5799C15.7579 6.76951 15.9022 6.62527 15.9022 6.44725C15.9022 6.26923 15.7579 6.12498 15.5799 6.12498H10.9835C10.8055 6.12498 10.6612 6.26923 10.6612 6.44725C10.6612 6.62527 10.8055 6.76951 10.9835 6.76951Z" fill="white"/>
</g>
<defs>
<clipPath id="clip0">
<rect width="22" height="22" fill="white"/>
</clipPath>
</defs>
</svg>
