<?xml version="1.0" encoding="utf-8"?>
<!-- Generator: Adobe Illustrator 16.0.0, SVG Export Plug-In . SVG Version: 6.00 Build 0)  -->
<!DOCTYPE svg PUBLIC "-//W3C//DTD SVG 1.1//EN" "http://www.w3.org/Graphics/SVG/1.1/DTD/svg11.dtd">
<svg version="1.1" id="Layer_1" xmlns="http://www.w3.org/2000/svg" xmlns:xlink="http://www.w3.org/1999/xlink" x="0px" y="0px"
	 width="640px" height="640px" viewBox="0 0 640 640" enable-background="new 0 0 640 640" xml:space="preserve">
<g>
	<linearGradient id="SVGID_1_" gradientUnits="userSpaceOnUse" x1="144.6709" y1="165.5" x2="144.6709" y2="562.602">
		<stop  offset="0" style="stop-color:#6A71E5"/>
		<stop  offset="1" style="stop-color:#3FB4E5"/>
	</linearGradient>
	<path fill="url(#SVGID_1_)" d="M194.9,506.373c-34.631,0-67.068,0-100.479,0c0-113.598,0-226.489,0-342.7
		c9.274,7.751,17.188,14.262,24.989,20.907c22.283,18.976,44.716,37.789,66.604,57.212c4.115,3.654,8.481,9.828,8.513,14.862
		C195.054,339.33,194.9,422.007,194.9,506.373z"/>
	<linearGradient id="SVGID_2_" gradientUnits="userSpaceOnUse" x1="333.3867" y1="165.5" x2="333.3867" y2="562.602">
		<stop  offset="0" style="stop-color:#6A71E5"/>
		<stop  offset="1" style="stop-color:#3FB4E5"/>
	</linearGradient>
	<path fill="url(#SVGID_2_)" d="M283.477,236.037c30.671-19.488,60.115-38.195,91.283-57.998
		c48.404,56.369,96.699,112.606,145.834,169.82c9.844-8.019,19.191-15.635,30.769-25.061c7.494,39.862,14.588,77.581,22.325,118.734
		c-38.729-13.672-74.938-26.453-113.877-40.2c10.709-9.681,19.623-17.743,29.679-26.835
		c-41.062-47.85-81.617-95.109-122.765-143.057c-29.012,18.531-56.93,36.362-85.681,54.726c-3.399-2.412-7.166-4.655-10.443-7.464
		c-56.056-48.052-112.21-95.995-167.799-144.583c-5.021-4.392-8.14-12.823-8.956-19.756c-1.434-12.17-0.401-24.628-0.401-41.177
		C158.162,128.647,220.297,181.895,283.477,236.037z"/>
	<linearGradient id="SVGID_3_" gradientUnits="userSpaceOnUse" x1="285.9634" y1="165.5" x2="285.9633" y2="562.602">
		<stop  offset="0" style="stop-color:#6A71E5"/>
		<stop  offset="1" style="stop-color:#3FB4E5"/>
	</linearGradient>
	<path fill="url(#SVGID_3_)" d="M335.418,506.406c-33.056,0-65.479,0-98.909,0c0-72.986,0-145.309,0-220.661
		c11.754,9.598,22.742,17.678,32.616,26.942c6.65,6.238,11.748,6.114,18.96,1.224c14.863-10.077,30.279-19.342,47.333-30.118
		C335.418,358.52,335.418,431.581,335.418,506.406z"/>
	<linearGradient id="SVGID_4_" gradientUnits="userSpaceOnUse" x1="429.0244" y1="165.5" x2="429.0244" y2="562.602">
		<stop  offset="0" style="stop-color:#6A71E5"/>
		<stop  offset="1" style="stop-color:#3FB4E5"/>
	</linearGradient>
	<path fill="url(#SVGID_4_)" d="M378.75,288.435c24.895,29.451,47.648,56.369,71.697,84.82
		c-14.455,12.435-28.316,24.361-44.146,37.979c21.469,7.585,40.711,14.939,60.334,21.086c9.607,3.007,13.088,7.753,12.623,17.901
		c-0.85,18.386-0.242,36.835-0.242,56.041c-34.18,0-66.621,0-100.266,0C378.75,434.98,378.75,363.804,378.75,288.435z"/>
	<linearGradient id="SVGID_5_" gradientUnits="userSpaceOnUse" x1="319.9995" y1="165.5" x2="319.9995" y2="562.602">
		<stop  offset="0" style="stop-color:#6A71E5"/>
		<stop  offset="1" style="stop-color:#3FB4E5"/>
	</linearGradient>
	<path fill="url(#SVGID_5_)" d="M60.369,566.813c0-6.419,0-11.847,0-18.209c173.294,0,345.866,0,519.262,0
		c0,6.198,0,11.625,0,18.209C407.109,566.813,234.522,566.813,60.369,566.813z"/>
</g>
</svg>
