<svg width="22" height="20" viewBox="0 0 22 20" fill="none" xmlns="http://www.w3.org/2000/svg">
<path fill-rule="evenodd" clip-rule="evenodd" d="M5.70093 16.833C4.23369 16.833 2.8594 16.833 1.44385 16.833C1.44385 12.4188 1.44385 8.03195 1.44385 3.51617C1.83677 3.81737 2.17207 4.07037 2.50258 4.32859C3.44666 5.06596 4.3971 5.79701 5.32445 6.55176C5.4988 6.69374 5.68377 6.93366 5.68513 7.12927C5.70746 10.3419 5.70093 13.5546 5.70093 16.833Z" fill="white"/>
<path fill-rule="evenodd" clip-rule="evenodd" d="M9.45371 6.32811C10.7532 5.57083 12.0007 4.84391 13.3212 4.07439C15.372 6.26481 17.4181 8.45009 19.4999 10.6733C19.9169 10.3618 20.3129 10.0658 20.8034 9.69955C21.1209 11.2485 21.4215 12.7142 21.7493 14.3134C20.1085 13.7821 18.5744 13.2854 16.9246 12.7513C17.3783 12.3751 17.756 12.0618 18.182 11.7085C16.4423 9.84911 14.7241 8.0127 12.9807 6.14951C11.7516 6.8696 10.5687 7.56248 9.35063 8.27608C9.20662 8.18235 9.04702 8.0952 8.90818 7.98604C6.53321 6.11881 4.15408 4.25582 1.79889 2.36776C1.58616 2.1971 1.45402 1.86948 1.41945 1.60008C1.35869 1.12717 1.40246 0.643069 1.40246 0C4.14438 2.15509 6.77691 4.22423 9.45371 6.32811Z" fill="white"/>
<path fill-rule="evenodd" clip-rule="evenodd" d="M11.6522 16.8343C10.2517 16.8343 8.87803 16.8343 7.46167 16.8343C7.46167 13.9981 7.46167 11.1878 7.46167 8.25969C7.95966 8.63265 8.4252 8.94663 8.84354 9.30662C9.12529 9.54902 9.34128 9.5442 9.64684 9.35418C10.2765 8.9626 10.9297 8.60258 11.6522 8.18384C11.6522 11.0876 11.6522 13.9267 11.6522 16.8343Z" fill="white"/>
<path fill-rule="evenodd" clip-rule="evenodd" d="M13.4885 8.36421C14.5433 9.50863 15.5073 10.5546 16.5262 11.6602C15.9137 12.1434 15.3265 12.6068 14.6558 13.136C15.5654 13.4307 16.3806 13.7165 17.212 13.9553C17.619 14.0722 17.7665 14.2566 17.7468 14.651C17.7108 15.3654 17.7366 16.0823 17.7366 16.8286C16.2884 16.8286 14.914 16.8286 13.4885 16.8286C13.4885 14.0587 13.4885 11.2929 13.4885 8.36421Z" fill="white"/>
<path fill-rule="evenodd" clip-rule="evenodd" d="M0 19.1815C0 18.9321 0 18.7212 0 18.474C7.34209 18.474 14.6536 18.474 22 18.474C22 18.7148 22 18.9257 22 19.1815C14.6906 19.1815 7.37848 19.1815 0 19.1815Z" fill="white"/>
</svg>
