<svg width="70" height="70" viewBox="0 0 70 70" fill="none" xmlns="http://www.w3.org/2000/svg">
<g clip-path="url(#clip0)">
<path d="M35.0001 21.5343C30.2355 21.5343 26.3594 25.4105 26.3594 30.1747C26.3594 34.9391 30.2355 38.8153 35.0001 38.8153C39.7646 38.8153 43.6409 34.9391 43.6409 30.1747C43.6409 25.4104 39.7645 21.5343 35.0001 21.5343Z" fill="url(#paint0_linear)"/>
<path d="M52.2506 62.8334C51.6621 58.7209 49.6079 54.9431 46.4664 52.1961C43.2936 49.4214 39.2222 47.8934 35.0028 47.8934C30.7833 47.8934 26.712 49.4216 23.539 52.1961C20.3976 54.9431 18.3434 58.7209 17.7551 62.8335C17.6708 63.4221 17.8462 64.0182 18.2358 64.4674C18.6253 64.9165 19.1905 65.1747 19.7851 65.1747H50.2204C50.815 65.1747 51.3802 64.9165 51.7697 64.4674C52.1594 64.0182 52.3346 63.4219 52.2506 62.8334Z" fill="url(#paint1_linear)"/>
<path d="M22.4684 17.6457C23.2691 16.8449 23.2691 15.5464 22.4684 14.7455C21.6676 13.9446 20.3691 13.9446 19.5682 14.7455C11.0606 23.2532 11.0606 37.0962 19.5683 45.6038C19.9686 46.0043 20.4936 46.2044 21.0182 46.2044C21.5432 46.2044 22.0679 46.0041 22.4684 45.6038C23.2691 44.8029 23.2691 43.5045 22.4684 42.7036C15.5599 35.7952 15.5599 24.5542 22.4684 17.6457Z" fill="url(#paint2_linear)"/>
<path d="M50.4305 14.7455C49.6297 13.9446 48.3312 13.9447 47.5303 14.7455C46.7295 15.5463 46.7295 16.8448 47.5303 17.6457C50.8768 20.9923 52.7198 25.4418 52.7198 30.1746C52.7198 34.9076 50.877 39.3572 47.5303 42.7039C46.7295 43.5046 46.7295 44.8032 47.5304 45.604C47.931 46.0045 48.4557 46.2047 48.9806 46.2047C49.5053 46.2047 50.0303 46.0045 50.4305 45.604C54.5518 41.4826 56.8214 36.003 56.8214 30.1746C56.8214 24.3461 54.5516 18.8667 50.4305 14.7455Z" fill="url(#paint3_linear)"/>
<path d="M13.1515 52.0233C1.10441 39.9761 1.10414 20.3737 13.1514 8.32631C13.9521 7.52555 13.9521 6.227 13.1514 5.4261C12.3506 4.6252 11.052 4.62534 10.251 5.4261C3.64068 12.0368 0 20.8261 0 30.1749C0.000136719 39.5238 3.64081 48.313 10.2514 54.9235C10.6517 55.324 11.1767 55.5241 11.7013 55.5241C12.2263 55.5241 12.7511 55.3238 13.1515 54.9235C13.9524 54.1226 13.9524 52.8242 13.1515 52.0233Z" fill="url(#paint4_linear)"/>
<path d="M59.7509 5.42609C58.9501 4.62519 57.6516 4.62519 56.8507 5.42609C56.0498 6.22685 56.0498 7.5254 56.8507 8.3263C68.8979 20.3735 68.8979 39.9758 56.8507 52.0232C56.0498 52.8241 56.0498 54.1225 56.8507 54.9234C57.2511 55.3238 57.776 55.524 58.3009 55.524C58.8257 55.524 59.3506 55.3237 59.7509 54.9234C66.3615 48.3126 70.0021 39.5234 70.0021 30.1747C70.0022 20.8261 66.3615 12.0368 59.7509 5.42609Z" fill="url(#paint5_linear)"/>
</g>
<defs>
<linearGradient id="paint0_linear" x1="35.0001" y1="21.5343" x2="35.0001" y2="38.8153" gradientUnits="userSpaceOnUse">
<stop stop-color="#6A71E5"/>
<stop offset="1" stop-color="#3FB4E5"/>
</linearGradient>
<linearGradient id="paint1_linear" x1="35.0028" y1="47.8934" x2="35.0028" y2="65.1747" gradientUnits="userSpaceOnUse">
<stop stop-color="#6A71E5"/>
<stop offset="1" stop-color="#3FB4E5"/>
</linearGradient>
<linearGradient id="paint2_linear" x1="18.1282" y1="14.1448" x2="18.1282" y2="46.2044" gradientUnits="userSpaceOnUse">
<stop stop-color="#6A71E5"/>
<stop offset="1" stop-color="#3FB4E5"/>
</linearGradient>
<linearGradient id="paint3_linear" x1="51.8755" y1="14.1449" x2="51.8755" y2="46.2047" gradientUnits="userSpaceOnUse">
<stop stop-color="#6A71E5"/>
<stop offset="1" stop-color="#3FB4E5"/>
</linearGradient>
<linearGradient id="paint4_linear" x1="6.87609" y1="4.82548" x2="6.87609" y2="55.5241" gradientUnits="userSpaceOnUse">
<stop stop-color="#6A71E5"/>
<stop offset="1" stop-color="#3FB4E5"/>
</linearGradient>
<linearGradient id="paint5_linear" x1="63.126" y1="4.82542" x2="63.126" y2="55.524" gradientUnits="userSpaceOnUse">
<stop stop-color="#6A71E5"/>
<stop offset="1" stop-color="#3FB4E5"/>
</linearGradient>
<clipPath id="clip0">
<rect width="70" height="70" fill="white"/>
</clipPath>
</defs>
</svg>
