<svg width="22" height="22" viewBox="0 0 22 22" fill="none" xmlns="http://www.w3.org/2000/svg">
<g clip-path="url(#clip0)">
<path d="M10.9996 6.76791C9.50214 6.76791 8.28394 7.98616 8.28394 9.48349C8.28394 10.9809 9.50214 12.1991 10.9996 12.1991C12.497 12.1991 13.7153 10.9809 13.7153 9.48349C13.7153 7.98612 12.497 6.76791 10.9996 6.76791Z" fill="white"/>
<path d="M16.4212 19.7476C16.2362 18.4551 15.5906 17.2678 14.6033 16.4045C13.6061 15.5324 12.3266 15.0522 11.0005 15.0522C9.67433 15.0522 8.39477 15.5325 7.39755 16.4045C6.41026 17.2678 5.76466 18.4551 5.57976 19.7477C5.55325 19.9327 5.60838 20.12 5.73084 20.2612C5.85326 20.4023 6.03089 20.4835 6.21776 20.4835H15.7831C15.97 20.4835 16.1476 20.4023 16.2701 20.2612C16.3925 20.12 16.4476 19.9326 16.4212 19.7476Z" fill="white"/>
<path d="M7.06187 5.5458C7.31353 5.29414 7.31353 4.88602 7.06187 4.63431C6.8102 4.3826 6.40208 4.3826 6.15037 4.63431C3.47656 7.30816 3.47656 11.6588 6.15042 14.3326C6.27623 14.4585 6.44123 14.5214 6.6061 14.5214C6.7711 14.5214 6.93601 14.4585 7.06187 14.3326C7.31353 14.0809 7.31353 13.6729 7.06187 13.4211C4.89062 11.2499 4.89062 7.71705 7.06187 5.5458Z" fill="white"/>
<path d="M15.8495 4.63431C15.5978 4.3826 15.1897 4.38264 14.938 4.63431C14.6864 4.88598 14.6864 5.29409 14.938 5.5458C15.9898 6.59759 16.569 7.996 16.569 9.48345C16.569 10.971 15.9898 12.3694 14.938 13.4212C14.6864 13.6729 14.6863 14.081 14.9381 14.3327C15.064 14.4586 15.2289 14.5215 15.3938 14.5215C15.5587 14.5215 15.7237 14.4586 15.8495 14.3327C17.1448 13.0374 17.8581 11.3152 17.8581 9.48345C17.8581 7.65165 17.1447 5.92956 15.8495 4.63431Z" fill="white"/>
<path d="M4.13333 16.3502C0.347101 12.5639 0.347015 6.40316 4.13329 2.61685C4.38495 2.36518 4.38495 1.95706 4.13329 1.70535C3.88162 1.45364 3.4735 1.45369 3.22175 1.70535C1.14421 3.78302 0 6.54534 0 9.48354C4.29687e-05 12.4218 1.14426 15.1841 3.22188 17.2617C3.34769 17.3875 3.51269 17.4505 3.67756 17.4505C3.84256 17.4505 4.00747 17.3875 4.13333 17.2617C4.38504 17.01 4.38504 16.6019 4.13333 16.3502Z" fill="white"/>
<path d="M18.7785 1.70534C18.5268 1.45363 18.1187 1.45363 17.867 1.70534C17.6153 1.95701 17.6153 2.36512 17.867 2.61683C21.6533 6.4031 21.6533 12.5638 17.867 16.3501C17.6153 16.6018 17.6153 17.0099 17.867 17.2616C17.9929 17.3875 18.1578 17.4504 18.3228 17.4504C18.4877 17.4504 18.6527 17.3874 18.7785 17.2616C20.8561 15.184 22.0003 12.4216 22.0003 9.48348C22.0003 6.54533 20.8561 3.783 18.7785 1.70534Z" fill="white"/>
</g>
<defs>
<clipPath id="clip0">
<rect width="22" height="22" fill="white"/>
</clipPath>
</defs>
</svg>
