<svg width="50" height="50" viewBox="0 0 50 50" fill="none" xmlns="http://www.w3.org/2000/svg">
<rect width="50" height="50" rx="4" fill="#6A71E5"/>
<g clip-path="url(#clip0)">
<path d="M31.6918 15.5645C30.0381 13.9109 27.8393 13 25.5008 13C23.1619 13 20.9635 13.9109 19.3098 15.5645C16.2495 18.6244 15.8692 24.3817 18.4862 27.8698L25.5008 38L32.505 27.884C35.1325 24.3817 34.7522 18.6244 31.6918 15.5645ZM25.5816 24.8706C23.8198 24.8706 22.3857 23.4366 22.3857 21.6747C22.3857 19.9128 23.8198 18.4788 25.5816 18.4788C27.3435 18.4788 28.7776 19.9128 28.7776 21.6747C28.7776 23.4366 27.3435 24.8706 25.5816 24.8706Z" fill="white"/>
</g>
<defs>
<clipPath id="clip0">
<rect width="25" height="25" fill="white" transform="translate(13 13)"/>
</clipPath>
</defs>
</svg>
