<svg width="25" height="25" viewBox="0 0 25 25" fill="none" xmlns="http://www.w3.org/2000/svg">
<path fill-rule="evenodd" clip-rule="evenodd" d="M17.1901 8.50619C17.2917 8.87592 17.4056 9.21762 17.4786 9.56786C17.9168 11.6681 17.5954 13.6465 16.4974 15.4932C16.4449 15.5814 16.4705 15.6217 16.5305 15.6813C17.9409 17.0842 19.3506 18.4877 20.7585 19.893C21.3488 20.4822 21.5222 21.313 21.1501 22.0277C20.7958 22.7084 20.2585 23.1917 19.4516 23.2678C18.8855 23.3212 18.3926 23.1359 17.9893 22.7362C16.6776 21.4363 15.3697 20.1325 14.0602 18.8301C13.9237 18.6943 13.7837 18.5616 13.6519 18.4213C13.5942 18.36 13.5501 18.3614 13.4802 18.4001C12.1433 19.141 10.7095 19.4724 9.18342 19.4116C5.55442 19.2672 2.37615 16.5871 1.62668 13.0386C0.867552 9.44437 2.51711 5.87831 5.74299 4.13998C8.40744 2.70419 11.7417 2.91054 14.2119 4.66322C14.6089 4.94486 14.981 5.25512 15.3133 5.59462C14.9037 6.00326 14.499 6.40707 14.0883 6.81683C13.9548 6.69696 13.8093 6.55971 13.6569 6.4306C10.4841 3.74281 5.58743 4.79906 3.80427 8.55692C3.70398 8.7683 3.62239 8.98876 3.53855 9.20746C3.52536 9.24174 3.53127 9.30433 3.55456 9.32836C3.80227 9.58349 4.05525 9.83353 4.30452 10.0827C5.30383 9.08226 6.29973 8.08529 7.29812 7.08583C8.58284 8.37338 9.84675 9.64008 11.0996 10.8956C13.5689 8.42645 16.0151 5.98041 18.4661 3.52953C17.6198 3.52953 16.7686 3.52953 15.9107 3.52953C15.9056 3.48388 15.8991 3.45189 15.8991 3.41991C15.8984 2.89642 15.9011 2.37289 15.8964 1.8494C15.8954 1.74843 15.9275 1.72299 16.0253 1.72313C17.8345 1.72577 19.6437 1.72582 21.453 1.72308C21.5549 1.72294 21.589 1.74847 21.5888 1.85516C21.5858 3.70629 21.5864 5.55736 21.5874 7.40844C21.5875 7.48266 21.5863 7.53495 21.4847 7.53417C20.9445 7.52992 20.4042 7.53212 19.8639 7.53163C19.8439 7.53158 19.8239 7.52689 19.79 7.5226C19.79 6.62821 19.79 5.73866 19.79 4.8518C16.9155 7.72645 14.047 10.5951 11.175 13.4672C9.8782 12.168 8.61399 10.9015 7.34109 9.62626C6.32546 10.6453 5.33078 11.6432 4.32873 12.6485C3.951 12.2675 3.58723 11.9006 3.22346 11.5336C3.21286 11.5389 3.20222 11.5442 3.19167 11.5494C3.19167 11.6089 3.1883 11.6687 3.19216 11.728C3.36389 14.3911 5.20827 16.679 7.78874 17.431C11.5085 18.515 15.3759 15.9877 15.8738 12.1473C15.9667 11.4308 15.9404 10.7187 15.8 10.0098C15.7899 9.95858 15.8049 9.8806 15.8393 9.84555C16.2618 9.41532 16.6901 8.99081 17.1171 8.56498C17.1285 8.5537 17.1423 8.54457 17.1901 8.50619Z" fill="white"/>
</svg>
