<svg width="70" height="70" viewBox="0 0 70 70" fill="none" xmlns="http://www.w3.org/2000/svg">
<g clip-path="url(#clip0)">
<path d="M29.9739 48.557L26.1358 52.4225C26.0862 52.4724 26.0295 52.483 25.9905 52.483H25.9902C25.9514 52.483 25.8948 52.4727 25.8452 52.4232L24.4196 50.9975C24.0193 50.5969 23.37 50.597 22.9696 50.9973C22.5691 51.3978 22.5691 52.0471 22.9696 52.4474L24.3951 53.8732C24.8213 54.2992 25.3876 54.5338 25.9901 54.5338H25.994C26.5981 54.5327 27.1652 54.2962 27.5911 53.8675L31.4293 50.0019C31.8282 49.6001 31.8259 48.9508 31.4241 48.5518C31.022 48.1529 30.373 48.1552 29.9739 48.557ZM31.4241 20.635C31.0222 20.2359 30.373 20.2382 29.9739 20.6402L26.1358 24.5056C26.0862 24.5555 26.0295 24.566 25.9906 24.566H25.9902C25.9514 24.566 25.8948 24.5556 25.8452 24.5062L24.4196 23.0805C24.0193 22.68 23.37 22.6799 22.9696 23.0803C22.5691 23.4808 22.5691 24.13 22.9696 24.5304L24.3951 25.9562C24.8213 26.3823 25.3876 26.6168 25.9902 26.6168H25.9943C26.5983 26.6157 27.1654 26.3792 27.5912 25.9505L31.4294 22.085C31.8282 21.6832 31.8259 21.034 31.4241 20.635ZM31.4241 34.5934C31.0222 34.1945 30.373 34.1966 29.9739 34.5986L26.1358 38.464C26.0862 38.5139 26.0295 38.5245 25.9906 38.5245H25.9902C25.9514 38.5245 25.8948 38.5141 25.8452 38.4646L24.4196 37.0389C24.0193 36.6383 23.37 36.6384 22.9696 37.0387C22.5691 37.4392 22.5691 38.0885 22.9696 38.4888L24.3951 39.9146C24.8213 40.3408 25.3876 40.5753 25.9902 40.5753H25.9943C26.5983 40.5742 27.1654 40.3376 27.5912 39.9089L31.4294 36.0434C31.8282 35.6416 31.8259 34.9925 31.4241 34.5934ZM24.9965 19.4886H21.6543C20.4104 19.4886 19.3985 20.5006 19.3985 21.7444V29.1405C19.3985 30.3844 20.4104 31.3964 21.6543 31.3964H29.0504C30.2943 31.3964 31.3063 30.3844 31.3063 29.1405V26.5459C31.3063 25.9794 30.8471 25.5205 30.2809 25.5205C29.7146 25.5205 29.2555 25.9794 29.2555 26.5459V29.1405C29.2555 29.2536 29.1635 29.3456 29.0504 29.3456H21.6543C21.5413 29.3456 21.4492 29.2536 21.4492 29.1405V21.7444C21.4492 21.6314 21.5413 21.5394 21.6543 21.5394H24.9965C25.5628 21.5394 26.0219 21.0804 26.0219 20.514C26.0219 19.9475 25.5628 19.4886 24.9965 19.4886ZM56.4434 2.10547H51.743C51.1767 2.10547 50.7176 2.56443 50.7176 3.13086C50.7176 3.69729 51.1767 4.15625 51.743 4.15625H56.4434C58.1306 4.15625 59.5031 5.52891 59.5031 7.21602V64.8895C59.5031 66.5766 58.1305 67.9492 56.4434 67.9492H13.552C11.8647 67.9492 10.4922 66.5766 10.4922 64.8895V7.21602C10.4922 5.52891 11.8648 4.15625 13.552 4.15625H21.318V6.19062H14.2328C13.2921 6.19062 12.5266 6.95611 12.5266 7.89674V50.1229C12.5266 50.6893 12.9857 51.1483 13.552 51.1483C14.1182 51.1483 14.5773 50.6893 14.5773 50.1229V8.24141H19.4496C19.3373 8.55996 19.2755 8.90203 19.2755 9.25846V12.1025C19.2755 13.7942 20.6518 15.1704 22.3434 15.1704H47.6518C49.3434 15.1704 50.7196 13.7942 50.7196 12.1025V9.25859C50.7196 8.90217 50.6578 8.55996 50.5456 8.24154H55.4178V53.1988H50.0969C47.2791 53.1988 44.9866 55.4915 44.9866 58.3097V63.6318H14.5773V54.2246C14.5773 53.6581 14.1182 53.1992 13.552 53.1992C12.9857 53.1992 12.5266 53.6581 12.5266 54.2246V63.9763C12.5266 64.9171 13.2921 65.6824 14.2328 65.6824H46.0117C46.2843 65.6828 46.5449 65.5726 46.7369 65.382L46.7393 65.3796L57.1685 54.949C57.343 54.7735 57.4497 54.5364 57.4656 54.2895C57.4662 54.2803 57.4689 7.91998 57.4689 7.89674C57.4689 6.95598 56.7034 6.19062 55.7626 6.19062H48.6775V3.34592C48.6773 1.50104 47.1766 0 45.3318 0H24.6635C23.2569 0 22.0512 0.873086 21.5574 2.10547H13.552C10.7339 2.10547 8.44141 4.39811 8.44141 7.21602V64.8895C8.44141 67.7074 10.734 70 13.552 70H56.4434C59.2614 70 61.5539 67.7074 61.5539 64.8895V7.21602C61.5539 4.39811 59.2614 2.10547 56.4434 2.10547ZM47.0375 62.1809V58.3097C47.0375 56.6223 48.41 55.2495 50.097 55.2495H53.9679L47.0375 62.1809ZM23.3688 3.34592C23.3688 2.6317 23.9496 2.05078 24.6635 2.05078H45.3318C46.0458 2.05078 46.6265 2.6317 46.6265 3.34592V7.10855C46.6265 7.82277 46.0458 8.40369 45.3318 8.40369H24.6635C23.9496 8.40369 23.3688 7.82277 23.3688 7.10855V3.34592ZM21.3263 9.25859C21.3263 8.97272 21.4451 8.71445 21.6356 8.52947C22.1708 9.66574 23.3265 10.4543 24.6635 10.4543H45.3318C46.6687 10.4543 47.8245 9.66574 48.3597 8.52947C48.5502 8.71445 48.669 8.97272 48.669 9.25859V12.1026C48.669 12.6636 48.2128 13.1198 47.6519 13.1198H22.3434C21.7826 13.1198 21.3263 12.6634 21.3263 12.1026V9.25859ZM19.3985 43.0989C19.3985 44.3428 20.4104 45.3548 21.6543 45.3548H29.0504C30.2943 45.3548 31.3063 44.3428 31.3063 43.0989V40.5043C31.3063 39.9379 30.8471 39.4789 30.2809 39.4789C29.7146 39.4789 29.2555 39.9379 29.2555 40.5043V43.0989C29.2555 43.212 29.1635 43.304 29.0504 43.304H21.6543C21.5413 43.304 21.4492 43.212 21.4492 43.0989V35.7029C21.4492 35.5898 21.5413 35.4978 21.6543 35.4978H24.9965C25.5628 35.4978 26.0219 35.0388 26.0219 34.4724C26.0219 33.906 25.5628 33.447 24.9965 33.447H21.6543C20.4104 33.447 19.3985 34.459 19.3985 35.7029V43.0989ZM34.9464 49.4564H49.5715C50.1377 49.4564 50.5969 48.9974 50.5969 48.431C50.5969 47.8646 50.1377 47.4056 49.5715 47.4056H34.9464C34.3801 47.4056 33.921 47.8646 33.921 48.431C33.921 48.9974 34.3801 49.4564 34.9464 49.4564ZM19.3985 57.0574C19.3985 58.3013 20.4104 59.3132 21.6543 59.3132H29.0504C30.2943 59.3132 31.3063 58.3013 31.3063 57.0574V54.4629C31.3063 53.8964 30.8471 53.4375 30.2809 53.4375C29.7146 53.4375 29.2555 53.8964 29.2555 54.4629V57.0574C29.2555 57.1705 29.1635 57.2625 29.0504 57.2625H21.6543C21.5413 57.2625 21.4492 57.1705 21.4492 57.0574V49.6614C21.4492 49.5484 21.5413 49.4564 21.6543 49.4564H24.9965C25.5628 49.4564 26.0219 48.9974 26.0219 48.431C26.0219 47.8646 25.5628 47.4056 24.9965 47.4056H21.6543C20.4104 47.4056 19.3985 48.4176 19.3985 49.6614V57.0574ZM34.9464 53.5579H43.4191C43.9854 53.5579 44.4445 53.099 44.4445 52.5325C44.4445 51.9661 43.9854 51.5071 43.4191 51.5071H34.9464C34.3801 51.5071 33.921 51.9661 33.921 52.5325C33.921 53.099 34.3801 53.5579 34.9464 53.5579ZM34.9464 39.5995H43.4191C43.9854 39.5995 44.4445 39.1405 44.4445 38.5741C44.4445 38.0077 43.9854 37.5487 43.4191 37.5487H34.9464C34.3801 37.5487 33.921 38.0077 33.921 38.5741C33.921 39.1405 34.3801 39.5995 34.9464 39.5995ZM34.9464 35.4979H49.5715C50.1377 35.4979 50.5969 35.039 50.5969 34.4725C50.5969 33.9061 50.1377 33.4471 49.5715 33.4471H34.9464C34.3801 33.4471 33.921 33.9061 33.921 34.4725C33.921 35.039 34.3801 35.4979 34.9464 35.4979ZM34.9464 25.6409H49.5715C50.1377 25.6409 50.5969 25.182 50.5969 24.6155C50.5969 24.0491 50.1377 23.5901 49.5715 23.5901H34.9464C34.3801 23.5901 33.921 24.0491 33.921 24.6155C33.921 25.182 34.3801 25.6409 34.9464 25.6409ZM34.9464 21.5394H49.5715C50.1377 21.5394 50.5969 21.0804 50.5969 20.514C50.5969 19.9475 50.1377 19.4886 49.5715 19.4886H34.9464C34.3801 19.4886 33.921 19.9475 33.921 20.514C33.921 21.0804 34.3801 21.5394 34.9464 21.5394Z" fill="url(#paint0_linear)"/>
</g>
<defs>
<linearGradient id="paint0_linear" x1="34.9977" y1="0" x2="34.9977" y2="70" gradientUnits="userSpaceOnUse">
<stop stop-color="#6A71E5"/>
<stop offset="1" stop-color="#3FB4E5"/>
</linearGradient>
<clipPath id="clip0">
<rect width="70" height="70" fill="white"/>
</clipPath>
</defs>
</svg>
