<svg width="80" height="80" viewBox="0 0 80 80" fill="none" xmlns="http://www.w3.org/2000/svg">
<g clip-path="url(#clip0)">
<path d="M32.5642 55.9569C33.2103 55.9569 33.7339 55.4331 33.7339 54.7872V52.5084C33.7339 51.8625 33.2103 51.3387 32.5642 51.3387C31.9181 51.3387 31.3945 51.8625 31.3945 52.5084V54.7872C31.3945 55.4331 31.9181 55.9569 32.5642 55.9569Z" fill="url(#paint0_linear)"/>
<path d="M48.5542 54.7872V52.5084C48.5542 51.8625 48.0306 51.3387 47.3845 51.3387C46.7384 51.3387 46.2148 51.8625 46.2148 52.5084V54.7872C46.2148 55.4331 46.7384 55.9569 47.3845 55.9569C48.0306 55.9569 48.5542 55.4331 48.5542 54.7872Z" fill="url(#paint1_linear)"/>
<path d="M32.5642 61.8467H47.3819C48.028 61.8467 48.5516 61.323 48.5516 60.677C48.5516 60.0311 48.028 59.5073 47.3819 59.5073H32.5642C31.9181 59.5073 31.3945 60.0311 31.3945 60.677C31.3945 61.323 31.9181 61.8467 32.5642 61.8467Z" fill="url(#paint2_linear)"/>
<path d="M35.3772 24.2264C35.3772 14.4728 27.442 6.53766 17.6884 6.53766C7.93484 6.53766 0 14.4728 0 24.2264C0 33.98 7.935 41.9152 17.6886 41.9152C27.4422 41.9152 35.3772 33.98 35.3772 24.2264ZM17.6886 39.5758C9.225 39.5758 2.33938 32.6902 2.33938 24.2264C2.33938 15.7628 9.225 8.87703 17.6886 8.87703C26.1522 8.87703 33.038 15.7627 33.038 24.2264C33.0378 32.6902 26.1522 39.5758 17.6886 39.5758Z" fill="url(#paint3_linear)"/>
<path d="M11.4488 23.24V20.9613C11.4488 20.3153 10.9252 19.7916 10.2791 19.7916C9.63297 19.7916 9.10938 20.3153 9.10938 20.9613V23.24C9.10938 23.8859 9.63297 24.4097 10.2791 24.4097C10.9252 24.4097 11.4488 23.8861 11.4488 23.24Z" fill="url(#paint4_linear)"/>
<path d="M25.0955 19.7916C24.4494 19.7916 23.9258 20.3153 23.9258 20.9613V23.24C23.9258 23.8859 24.4494 24.4097 25.0955 24.4097C25.7416 24.4097 26.2652 23.8859 26.2652 23.24V20.9613C26.2652 20.3153 25.7416 19.7916 25.0955 19.7916Z" fill="url(#paint5_linear)"/>
<path d="M24.3988 28.0811C23.8622 27.7222 23.1357 27.8661 22.7763 28.4033C21.6486 30.0894 19.7666 31.1155 17.7416 31.1481C15.6897 31.1805 13.7671 30.1984 12.5878 28.5197C12.2168 27.9913 11.4872 27.8636 10.9585 28.2349C10.4299 28.6061 10.3022 29.3356 10.6735 29.8644C12.2725 32.1406 14.8691 33.4883 17.6414 33.4883C17.6872 33.4883 17.7333 33.488 17.7794 33.4872C20.5716 33.4422 23.1666 32.0278 24.7208 29.7038C25.08 29.1667 24.9358 28.4403 24.3988 28.0811Z" fill="url(#paint6_linear)"/>
<path d="M62.3097 6.53781C57.8073 6.53781 53.5177 8.23047 50.2308 11.3039C49.7588 11.745 49.7339 12.4852 50.1752 12.9572C50.6164 13.4289 51.3567 13.4541 51.8284 13.0127C54.6806 10.3459 58.4028 8.87719 62.3097 8.87719C70.7733 8.87719 77.6589 15.7628 77.6589 24.2266C77.6589 32.6902 70.7733 39.5759 62.3097 39.5759C53.8461 39.5759 46.9603 32.6903 46.9603 24.2266C46.9603 21.693 47.5902 19.1828 48.7817 16.9675C49.0877 16.3986 48.8745 15.6894 48.3056 15.3833C47.7369 15.0775 47.0275 15.2905 46.7214 15.8594C45.3473 18.4142 44.6211 21.3075 44.6211 24.2266C44.6211 33.9802 52.5563 41.9153 62.3098 41.9153C72.0634 41.9153 79.9983 33.98 79.9983 24.2264C79.9983 14.4728 72.0633 6.53781 62.3097 6.53781Z" fill="url(#paint7_linear)"/>
<path d="M54.9041 19.7916C54.258 19.7916 53.7344 20.3153 53.7344 20.9613V23.24C53.7344 23.8859 54.258 24.4097 54.9041 24.4097C55.5502 24.4097 56.0737 23.8859 56.0737 23.24V20.9613C56.0737 20.3153 55.5502 19.7916 54.9041 19.7916Z" fill="url(#paint8_linear)"/>
<path d="M70.8902 23.24V20.9613C70.8902 20.3153 70.3666 19.7916 69.7205 19.7916C69.0744 19.7916 68.5508 20.3153 68.5508 20.9613V23.24C68.5508 23.8859 69.0744 24.4097 69.7205 24.4097C70.3666 24.4097 70.8902 23.8861 70.8902 23.24Z" fill="url(#paint9_linear)"/>
<path d="M62.2717 27.0338C59.4793 27.0788 56.8845 28.4931 55.3303 30.8172C54.9712 31.3542 55.1154 32.0806 55.6525 32.4397C55.8522 32.5733 56.0779 32.6372 56.3015 32.6372C56.6789 32.6372 57.0493 32.4548 57.2748 32.1177C58.4025 30.4316 60.2846 29.4055 62.3095 29.3728C64.352 29.3378 66.284 30.3223 67.4632 32.0013C67.8345 32.5298 68.564 32.6578 69.0928 32.2861C69.6214 31.9148 69.749 31.1853 69.3778 30.6566C67.7521 28.3427 65.0925 26.9866 62.2717 27.0338Z" fill="url(#paint10_linear)"/>
<path d="M40.0012 38.0848C30.2478 38.0848 22.3125 46.02 22.3125 55.7736C22.3125 65.5272 30.2478 73.4622 40.0012 73.4622C40.7905 73.4622 41.5844 73.4097 42.3609 73.3059C43.0012 73.2205 43.4511 72.6322 43.3656 71.9919C43.2798 71.3514 42.6908 70.9014 42.0514 70.9872C41.377 71.0772 40.6872 71.1228 40.0011 71.1228C31.5375 71.1228 24.6517 64.2372 24.6517 55.7734C24.6517 47.3098 31.5373 40.4241 40.0011 40.4241C48.4648 40.4241 55.3505 47.3097 55.3505 55.7734C55.3505 61.6173 52.1036 66.8773 46.8767 69.5008C46.2994 69.7906 46.0663 70.4936 46.3559 71.0708C46.6456 71.6481 47.3487 71.8812 47.9259 71.5916C53.9484 68.5687 57.6897 62.5075 57.6897 55.7734C57.69 46.02 49.7547 38.0848 40.0012 38.0848Z" fill="url(#paint11_linear)"/>
</g>
<defs>
<linearGradient id="paint0_linear" x1="32.5642" y1="51.3387" x2="32.5642" y2="55.9569" gradientUnits="userSpaceOnUse">
<stop stop-color="#6A71E5"/>
<stop offset="1" stop-color="#3FB4E5"/>
</linearGradient>
<linearGradient id="paint1_linear" x1="47.3845" y1="51.3387" x2="47.3845" y2="55.9569" gradientUnits="userSpaceOnUse">
<stop stop-color="#6A71E5"/>
<stop offset="1" stop-color="#3FB4E5"/>
</linearGradient>
<linearGradient id="paint2_linear" x1="39.973" y1="59.5073" x2="39.973" y2="61.8467" gradientUnits="userSpaceOnUse">
<stop stop-color="#6A71E5"/>
<stop offset="1" stop-color="#3FB4E5"/>
</linearGradient>
<linearGradient id="paint3_linear" x1="17.6886" y1="6.53766" x2="17.6886" y2="41.9152" gradientUnits="userSpaceOnUse">
<stop stop-color="#6A71E5"/>
<stop offset="1" stop-color="#3FB4E5"/>
</linearGradient>
<linearGradient id="paint4_linear" x1="10.2791" y1="19.7916" x2="10.2791" y2="24.4097" gradientUnits="userSpaceOnUse">
<stop stop-color="#6A71E5"/>
<stop offset="1" stop-color="#3FB4E5"/>
</linearGradient>
<linearGradient id="paint5_linear" x1="25.0955" y1="19.7916" x2="25.0955" y2="24.4097" gradientUnits="userSpaceOnUse">
<stop stop-color="#6A71E5"/>
<stop offset="1" stop-color="#3FB4E5"/>
</linearGradient>
<linearGradient id="paint6_linear" x1="17.6897" y1="27.8837" x2="17.6897" y2="33.4883" gradientUnits="userSpaceOnUse">
<stop stop-color="#6A71E5"/>
<stop offset="1" stop-color="#3FB4E5"/>
</linearGradient>
<linearGradient id="paint7_linear" x1="62.3097" y1="6.53781" x2="62.3097" y2="41.9153" gradientUnits="userSpaceOnUse">
<stop stop-color="#6A71E5"/>
<stop offset="1" stop-color="#3FB4E5"/>
</linearGradient>
<linearGradient id="paint8_linear" x1="54.9041" y1="19.7916" x2="54.9041" y2="24.4097" gradientUnits="userSpaceOnUse">
<stop stop-color="#6A71E5"/>
<stop offset="1" stop-color="#3FB4E5"/>
</linearGradient>
<linearGradient id="paint9_linear" x1="69.7205" y1="19.7916" x2="69.7205" y2="24.4097" gradientUnits="userSpaceOnUse">
<stop stop-color="#6A71E5"/>
<stop offset="1" stop-color="#3FB4E5"/>
</linearGradient>
<linearGradient id="paint10_linear" x1="62.3616" y1="27.0326" x2="62.3616" y2="32.6372" gradientUnits="userSpaceOnUse">
<stop stop-color="#6A71E5"/>
<stop offset="1" stop-color="#3FB4E5"/>
</linearGradient>
<linearGradient id="paint11_linear" x1="40.0011" y1="38.0848" x2="40.0011" y2="73.4622" gradientUnits="userSpaceOnUse">
<stop stop-color="#6A71E5"/>
<stop offset="1" stop-color="#3FB4E5"/>
</linearGradient>
<clipPath id="clip0">
<rect width="80" height="80" fill="white"/>
</clipPath>
</defs>
</svg>
