<svg width="70px" height="70px" viewBox="0 0 70 70" fill="none" xmlns="http://www.w3.org/2000/svg">
<path d="M58.6641 24.9141L51.6445 23.1914C51.2578 21.9609 50.7656 20.7656 50.168 19.6055L53.7539 13.6289C54.1758 12.9258 54.0703 12.0469 53.5078 11.4844L48.5156 6.49219C47.9531 5.92969 47.0742 5.82422 46.3711 6.24609L40.3945 9.83203C39.2344 9.23438 38.0391 8.74219 36.8086 8.35547L35.1211 1.33594C34.9102 0.5625 34.207 0 33.3984 0H26.3672C25.5586 0 24.8555 0.5625 24.6445 1.33594L22.957 8.35547C21.7266 8.74219 20.5312 9.23438 19.3711 9.83203L13.3945 6.24609C12.6914 5.82422 11.8125 5.92969 11.25 6.49219L6.25781 11.4844C5.69531 12.0469 5.58984 12.9258 6.01172 13.6289L9.59766 19.6055C9 20.7656 8.50781 21.9609 8.12109 23.1914L1.33594 24.9141C0.5625 25.0898 0 25.793 0 26.6016V33.6328C0 34.4414 0.5625 35.1445 1.33594 35.3203L8.12109 37.043C8.50781 38.2734 9 39.4688 9.59766 40.6289L6.01172 46.6055C5.58984 47.3086 5.69531 48.1875 6.25781 48.75L11.25 53.7422C11.8125 54.3047 12.6914 54.4102 13.3945 53.9883L19.3711 50.4023C20.5312 51 21.7266 51.4922 22.957 51.8789L24.6445 58.6641C24.8555 59.4375 25.5586 60 26.3672 60H33.3984C34.207 60 34.9102 59.4375 35.1211 58.6641L36.8086 51.8789C38.0391 51.4922 39.2344 51 40.3945 50.4023L46.3711 53.9883C47.0742 54.4102 47.9531 54.3047 48.5156 53.7422L53.5078 48.75C54.0703 48.1875 54.1758 47.3086 53.7539 46.6055L50.168 40.6289C50.7656 39.4688 51.2578 38.2734 51.6445 37.043L58.6641 35.3203C59.4375 35.1445 60 34.4414 60 33.6328V26.6016C60 25.793 59.4375 25.0898 58.6641 24.9141ZM29.8828 38.9062C25.0312 38.9062 21.0938 34.9688 21.0938 30.1172C21.0938 25.2656 25.0312 21.3281 29.8828 21.3281C34.7344 21.3281 38.6719 25.2656 38.6719 30.1172C38.6719 34.9688 34.7344 38.9062 29.8828 38.9062Z" fill="url(#paint0_linear)"/>
<defs>
<linearGradient id="paint0_linear" x1="30" y1="0" x2="30" y2="60" gradientUnits="userSpaceOnUse">
<stop stop-color="#6A71E5"/>
<stop offset="1" stop-color="#3FB4E5"/>
</linearGradient>
</defs>
</svg>
