<svg width="22" height="22" viewBox="0 0 22 22" fill="none" xmlns="http://www.w3.org/2000/svg">
<g clip-path="url(#clip0)">
<path d="M15.6796 5.71299C15.5298 5.46542 15.2336 5.34776 14.9548 5.42547C14.6762 5.50318 14.4833 5.75714 14.4833 6.04634C14.4833 6.83303 13.8433 7.47287 13.0568 7.47287C12.2703 7.47287 11.6303 6.83303 11.6303 6.04634V0.644527C11.6303 0.383861 11.4732 0.148876 11.2323 0.0491746C10.9914 -0.0506942 10.7143 0.00435949 10.53 0.188823C10.4575 0.261165 8.73894 1.98999 6.99769 4.60185C5.97081 6.14201 5.15138 7.66975 4.56224 9.1426C3.81599 11.0086 3.4375 12.7948 3.4375 14.4519C3.4375 18.6139 6.82364 22 10.9857 22C15.1477 22 18.5338 18.6139 18.5338 14.4519C18.534 11.7877 17.5735 8.84753 15.6796 5.71299ZM15.2865 14.2843C15.2865 14.6403 14.9979 14.9288 14.6419 14.9288C14.2861 14.9288 13.9974 14.6403 13.9974 14.2843V13.0789L10.7882 16.2883C10.6672 16.4092 10.5033 16.477 10.3323 16.477C10.1614 16.477 9.99745 16.4092 9.8766 16.2883L8.37974 14.7913L7.37099 15.8001C7.11922 16.0518 6.71118 16.0518 6.45941 15.8001C6.20764 15.5483 6.20764 15.1403 6.45941 14.8885L7.92404 13.424C8.17581 13.1724 8.58385 13.1724 8.83562 13.4242L10.3323 14.9211L13.086 12.1674H11.8805C11.5245 12.1674 11.236 11.8788 11.236 11.5228C11.236 11.1668 11.5245 10.8783 11.8805 10.8783H14.6421C14.9979 10.8783 15.2866 11.167 15.2866 11.5228V14.2843H15.2865Z" fill="white"/>
</g>
<defs>
<clipPath id="clip0">
<rect width="22" height="22" fill="white"/>
</clipPath>
</defs>
</svg>
